<svg width="700" height="170" viewBox="0 0 700 170" fill="none" xmlns="http://www.w3.org/2000/svg">
<path d="M387.287 58.1195H316.914C316.447 58.1195 315.98 57.8394 315.747 57.4193C315.514 56.9991 315.56 56.4856 315.84 56.0655L320.227 49.67C320.46 49.2965 320.88 49.1098 321.3 49.1098H383.88C384.347 49.1098 384.814 49.3899 385.047 49.81L388.5 56.2055C388.734 56.6257 388.687 57.0925 388.454 57.5126C388.174 57.8861 387.754 58.1195 387.287 58.1195ZM319.387 55.5053H385.047L383.04 51.724H321.954L319.387 55.5053Z" fill="#4A4A4A"/>
<path d="M412.44 163.995H290.826C290.126 163.995 289.566 163.435 289.566 162.735V66.1956C289.566 65.6354 289.893 65.1685 290.406 64.9818C299.133 61.9941 321.626 60.5003 353.686 60.7337C387.24 61.0138 404.926 62.2742 412.86 64.9818C413.373 65.1685 413.7 65.6354 413.7 66.1956V162.735C413.7 163.435 413.14 163.995 412.44 163.995ZM292.086 161.474H411.18V67.0825C403.106 64.655 385.746 63.488 353.64 63.2546C323.353 63.0212 301.046 64.4216 292.086 67.0825V161.474Z" fill="#4A4A4A"/>
<path d="M605.92 98.1729C604.753 97.7528 603.54 97.5194 602.327 97.5194C601.02 97.5194 599.667 97.7061 598.453 98.1729C597.94 98.3597 597.613 98.8265 597.613 99.3867V103.401C597.613 105.549 599.34 107.276 601.487 107.276H602.887C605.033 107.276 606.76 105.549 606.76 103.401V99.3867C606.76 98.8732 606.433 98.3597 605.92 98.1729ZM604.193 103.401C604.193 104.102 603.587 104.708 602.887 104.708H601.487C600.787 104.708 600.18 104.102 600.18 103.401V100.367C600.88 100.18 601.58 100.087 602.327 100.134C602.98 100.134 603.633 100.227 604.24 100.367V103.401H604.193Z" fill="#4A4A4A"/>
<path d="M483.56 36.599C482.813 36.599 482.113 36.4122 481.46 36.0855C479.966 36.739 478.193 36.739 476.7 36.0855C476 36.4122 475.253 36.599 474.506 36.599C471.706 36.599 469.373 34.3115 469.373 31.4639C469.373 28.663 471.66 26.3288 474.506 26.3288C474.693 26.3288 474.88 26.3288 475.113 26.3755C476.186 25.3485 477.633 24.7883 479.126 24.7883C481.086 24.7883 482.86 25.722 483.98 27.3092C486.36 27.4959 488.226 29.5032 488.226 31.9307C488.18 34.5449 486.126 36.599 483.56 36.599ZM481.506 33.3312C481.786 33.3312 482.066 33.4246 482.3 33.6113C482.673 33.8914 483.093 34.0314 483.56 34.0314C484.68 34.0314 485.613 33.0978 485.613 31.9774C485.613 30.857 484.68 29.9234 483.56 29.9234C483.466 29.9234 483.42 29.9234 483.326 29.9234C482.813 29.9701 482.3 29.69 482.066 29.2231C481.506 28.1028 480.386 27.4025 479.126 27.4025C478.146 27.4025 477.213 27.8227 476.56 28.6163C476.233 28.9897 475.72 29.1765 475.206 29.0364C474.973 28.9897 474.74 28.9431 474.506 28.9431C473.106 28.9431 471.986 30.0634 471.986 31.4639C471.986 32.8644 473.106 33.9847 474.506 33.9847C475.02 33.9847 475.533 33.8447 475.953 33.5179C476.373 33.2378 476.933 33.1911 477.353 33.4712C477.866 33.798 478.473 33.9847 479.08 33.9847C479.686 33.9847 480.293 33.798 480.806 33.4712C481.04 33.4246 481.273 33.3312 481.506 33.3312Z" fill="#4A4A4A"/>
<path d="M384.021 43.1345C383.228 43.1345 382.481 42.9477 381.828 42.621C380.334 43.2745 378.561 43.2745 377.068 42.621C376.414 42.9477 375.714 43.1345 374.968 43.1345C372.401 43.1345 370.348 41.0338 370.348 38.5129C370.348 36.0854 372.214 34.0781 374.594 33.8914C375.668 32.3042 377.488 31.3705 379.448 31.3705C380.941 31.3705 382.388 31.9307 383.461 32.9577C383.648 32.9577 383.834 32.911 384.068 32.911C386.868 32.911 389.201 35.1985 389.201 38.0461C389.108 40.847 386.821 43.1345 384.021 43.1345ZM381.828 39.9134C382.108 39.9134 382.341 40.0067 382.574 40.1468C382.994 40.4269 383.508 40.6136 384.021 40.6136C385.421 40.6136 386.541 39.4932 386.541 38.0928C386.541 36.6923 385.421 35.5719 384.021 35.5719C383.788 35.5719 383.554 35.6186 383.321 35.6653C382.808 35.8053 382.294 35.6186 381.968 35.2451C381.314 34.4515 380.381 34.0314 379.401 34.0314C378.141 34.0314 377.021 34.7316 376.461 35.852C376.228 36.3188 375.714 36.5989 375.201 36.5523C375.154 36.5523 375.061 36.5523 374.968 36.5523C373.848 36.5523 372.914 37.4859 372.914 38.6063C372.914 39.7266 373.848 40.6603 374.968 40.6603C375.434 40.6603 375.854 40.5202 376.228 40.2402C376.648 39.9134 377.254 39.8667 377.674 40.1468C378.188 40.4736 378.794 40.6603 379.401 40.6603C380.008 40.6603 380.614 40.4736 381.128 40.1468C381.361 39.9601 381.594 39.9134 381.828 39.9134Z" fill="#4A4A4A"/>
<path d="M406.56 84.6817H295.82C295.307 84.6817 294.887 84.2616 294.887 83.7481C294.887 83.2346 295.307 82.8145 295.82 82.8145H406.56C407.073 82.8145 407.493 83.2346 407.493 83.7481C407.493 84.2616 407.073 84.6817 406.56 84.6817Z" fill="#4A4A4A"/>
<path d="M406.56 99.1533H295.82C295.307 99.1533 294.887 98.7331 294.887 98.2196C294.887 97.7061 295.307 97.2859 295.82 97.2859H406.56C407.073 97.2859 407.493 97.7061 407.493 98.2196C407.493 98.7331 407.073 99.1533 406.56 99.1533Z" fill="#4A4A4A"/>
<path d="M406.56 112.038H295.82C295.307 112.038 294.887 111.617 294.887 111.104C294.887 110.59 295.307 110.17 295.82 110.17H406.56C407.073 110.17 407.493 110.59 407.493 111.104C407.493 111.617 407.073 112.038 406.56 112.038Z" fill="#4A4A4A"/>
<path d="M406.56 125.949H295.82C295.307 125.949 294.887 125.529 294.887 125.015C294.887 124.502 295.307 124.082 295.82 124.082H406.56C407.073 124.082 407.493 124.502 407.493 125.015C407.493 125.529 407.073 125.949 406.56 125.949Z" fill="#4A4A4A"/>
<path d="M599.992 163.762C599.292 163.762 598.686 163.201 598.686 162.455V137.386C598.686 132.998 600.412 128.843 603.492 125.716C606.619 122.588 610.726 120.907 615.159 120.907C615.859 120.907 616.466 121.467 616.466 122.214C616.466 122.915 615.906 123.521 615.159 123.521C611.426 123.521 607.972 124.969 605.312 127.583C602.699 130.197 601.252 133.698 601.252 137.433V162.455C601.299 163.155 600.739 163.762 599.992 163.762Z" fill="#4A4A4A"/>
<path d="M596.354 163.762C595.654 163.762 595.047 163.201 595.047 162.454V137.386C595.047 133.651 593.601 130.197 590.987 127.536C588.374 124.922 584.874 123.475 581.141 123.475C580.441 123.475 579.834 122.915 579.834 122.168C579.834 121.467 580.394 120.861 581.141 120.861C585.527 120.861 589.681 122.588 592.807 125.669C595.934 128.797 597.614 132.905 597.614 137.339V162.454C597.661 163.155 597.101 163.762 596.354 163.762Z" fill="#4A4A4A"/>
<path d="M607.087 131.924C607.861 131.924 608.487 131.297 608.487 130.524C608.487 129.75 607.861 129.123 607.087 129.123C606.314 129.123 605.688 129.75 605.688 130.524C605.688 131.297 606.314 131.924 607.087 131.924Z" fill="#4A4A4A"/>
<path d="M389.716 141.027H379.076C378.376 141.027 377.77 140.467 377.77 139.72V134.072C377.77 133.371 378.33 132.765 379.076 132.765H389.716C390.416 132.765 391.023 133.325 391.023 134.072V139.72C391.023 140.467 390.416 141.027 389.716 141.027ZM380.29 138.506H388.456V135.332H380.29V138.506Z" fill="#4A4A4A"/>
<path d="M378.656 141.027H368.016C367.316 141.027 366.709 140.467 366.709 139.72V134.072C366.709 133.371 367.269 132.765 368.016 132.765H378.656C379.356 132.765 379.962 133.325 379.962 134.072V139.72C379.962 140.467 379.356 141.027 378.656 141.027ZM369.229 138.506H377.396V135.332H369.229V138.506Z" fill="#4A4A4A"/>
<path d="M367.597 141.027H356.957C356.257 141.027 355.65 140.467 355.65 139.72V134.072C355.65 133.371 356.21 132.765 356.957 132.765H367.597C368.297 132.765 368.904 133.325 368.904 134.072V139.72C368.904 140.467 368.344 141.027 367.597 141.027ZM358.217 138.506H366.384V135.332H358.217V138.506Z" fill="#4A4A4A"/>
<path d="M356.538 141.027H345.898C345.198 141.027 344.592 140.467 344.592 139.72V134.072C344.592 133.371 345.152 132.765 345.898 132.765H356.538C357.238 132.765 357.845 133.325 357.845 134.072V139.72C357.845 140.467 357.285 141.027 356.538 141.027ZM347.158 138.506H355.325V135.332H347.158V138.506Z" fill="#4A4A4A"/>
<path d="M346.037 141.027H335.397C334.697 141.027 334.09 140.467 334.09 139.72V134.072C334.09 133.371 334.65 132.765 335.397 132.765H346.037C346.737 132.765 347.343 133.325 347.343 134.072V139.72C347.297 140.467 346.737 141.027 346.037 141.027ZM336.61 138.506H344.777V135.332H336.61V138.506Z" fill="#4A4A4A"/>
<path d="M631.96 151.111H622.113C621.413 151.111 620.807 150.551 620.807 149.804C620.807 149.103 621.367 148.496 622.113 148.496H631.96C632.66 148.496 633.267 149.057 633.267 149.804C633.267 150.551 632.66 151.111 631.96 151.111Z" fill="#4A4A4A"/>
<path d="M290.174 163.902H179.528C178.828 163.902 178.268 163.341 178.268 162.641V15.9654C178.268 15.4985 178.501 15.0784 178.921 14.8917C188.768 9.2431 209.348 -0.140046 236.414 0.233413C260.774 0.560189 279.441 8.40282 290.874 14.8917C291.248 15.1251 291.528 15.5452 291.528 15.9654V162.641C291.434 163.341 290.874 163.902 290.174 163.902ZM180.788 161.381H288.914V16.6656C277.714 10.3635 259.701 2.98767 236.321 2.70758C210.421 2.3808 190.634 11.1571 180.788 16.6656V161.381Z" fill="#4A4A4A"/>
<path d="M290.173 17.926H179.526C178.966 17.926 178.453 17.5526 178.313 16.9924C178.173 16.4322 178.359 15.872 178.873 15.5919L185.266 11.5305C185.359 11.4839 185.406 11.4372 185.499 11.3905L208.833 2.8943C208.926 2.84762 209.019 2.84762 209.113 2.84762L230.953 0C231.046 0 231.093 0 231.186 0L248.873 0.746917C248.966 0.746917 249.013 0.746917 249.106 0.7936L268.146 5.13506C268.193 5.13506 268.286 5.18174 268.333 5.18174L285.319 11.904C285.413 11.9507 285.459 11.9974 285.553 12.044L290.919 15.5919C291.386 15.9187 291.573 16.4789 291.433 16.9924C291.246 17.5526 290.733 17.926 290.173 17.926ZM183.866 15.4052H285.973L284.246 14.2381L267.446 7.56254L248.639 3.26776L231.139 2.52085L209.533 5.32178L186.433 13.7246L183.866 15.4052Z" fill="#4A4A4A"/>
<path d="M290.176 163.824H180.18C179.484 163.824 178.928 163.263 178.928 162.562V15.7567C178.928 15.2895 179.16 14.8689 179.577 14.682C189.366 9.02849 209.825 -0.362962 236.732 0.0108274C260.949 0.337893 279.506 8.18746 290.872 14.682C291.243 14.9157 291.521 15.3362 291.521 15.7567V162.562C291.428 163.263 290.872 163.824 290.176 163.824ZM181.433 161.301H288.923V16.4575C277.789 10.1499 259.882 2.76752 236.639 2.48718C210.892 2.16011 191.222 10.9442 181.433 16.4575V161.301Z" fill="#4A4A4A"/>
<path d="M148.727 164.462H112.887C112.14 164.462 111.533 163.855 111.533 163.108V95.232C111.533 94.485 112.14 93.8782 112.887 93.8782H148.727C149.473 93.8782 150.08 94.485 150.08 95.232V163.108C150.08 163.855 149.473 164.462 148.727 164.462ZM114.193 161.801H147.42V96.4924H114.193V161.801Z" fill="#4A4A4A"/>
<path d="M402.079 122.308H391.066C390.553 122.308 390.133 121.888 390.133 121.374V116.006C390.133 115.492 390.553 115.072 391.066 115.072H402.033C402.546 115.072 402.966 115.492 402.966 116.006V121.374C403.013 121.841 402.593 122.308 402.079 122.308ZM392.046 120.394H401.146V116.893H392.046V120.394Z" fill="#4A4A4A"/>
<path d="M402.079 108.63H391.066C390.553 108.63 390.133 108.21 390.133 107.696V102.328C390.133 101.814 390.553 101.394 391.066 101.394H402.033C402.546 101.394 402.966 101.814 402.966 102.328V107.696C403.013 108.21 402.593 108.63 402.079 108.63ZM392.046 106.762H401.146V103.261H392.046V106.762Z" fill="#4A4A4A"/>
<path d="M402.079 94.9518H391.066C390.553 94.9518 390.133 94.5317 390.133 94.0182V88.6497C390.133 88.1362 390.553 87.7161 391.066 87.7161H402.033C402.546 87.7161 402.966 88.1362 402.966 88.6497V94.0182C403.013 94.5317 402.593 94.9518 402.079 94.9518ZM392.046 93.0845H401.146V89.5834H392.046V93.0845Z" fill="#4A4A4A"/>
<path d="M402.079 81.3206H391.066C390.553 81.3206 390.133 80.9005 390.133 80.387V75.0185C390.133 74.505 390.553 74.0848 391.066 74.0848H402.033C402.546 74.0848 402.966 74.505 402.966 75.0185V80.387C403.013 80.9005 402.593 81.3206 402.079 81.3206ZM392.046 79.4066H401.146V75.9055H392.046V79.4066Z" fill="#4A4A4A"/>
<path d="M379.726 122.308H368.76C368.246 122.308 367.826 121.888 367.826 121.374V116.006C367.826 115.492 368.246 115.072 368.76 115.072H379.726C380.239 115.072 380.659 115.492 380.659 116.006V121.374C380.659 121.841 380.239 122.308 379.726 122.308ZM369.693 120.394H378.793V116.893H369.693V120.394Z" fill="#4A4A4A"/>
<path d="M379.726 108.63H368.76C368.246 108.63 367.826 108.21 367.826 107.696V102.328C367.826 101.814 368.246 101.394 368.76 101.394H379.726C380.239 101.394 380.659 101.814 380.659 102.328V107.696C380.659 108.21 380.239 108.63 379.726 108.63ZM369.693 106.762H378.793V103.261H369.693V106.762Z" fill="#4A4A4A"/>
<path d="M379.726 94.9518H368.76C368.246 94.9518 367.826 94.5317 367.826 94.0182V88.6497C367.826 88.1362 368.246 87.7161 368.76 87.7161H379.726C380.239 87.7161 380.659 88.1362 380.659 88.6497V94.0182C380.659 94.5317 380.239 94.9518 379.726 94.9518ZM369.693 93.0845H378.793V89.5834H369.693V93.0845Z" fill="#4A4A4A"/>
<path d="M379.726 81.3206H368.76C368.246 81.3206 367.826 80.9005 367.826 80.387V75.0185C367.826 74.505 368.246 74.0848 368.76 74.0848H379.726C380.239 74.0848 380.659 74.505 380.659 75.0185V80.387C380.659 80.9005 380.239 81.3206 379.726 81.3206ZM369.693 79.4066H378.793V75.9055H369.693V79.4066Z" fill="#4A4A4A"/>
<path d="M357.373 122.308H346.406C345.893 122.308 345.473 121.888 345.473 121.374V116.006C345.473 115.492 345.893 115.072 346.406 115.072H357.373C357.886 115.072 358.306 115.492 358.306 116.006V121.374C358.306 121.841 357.886 122.308 357.373 122.308ZM347.339 120.394H356.439V116.893H347.339V120.394Z" fill="#4A4A4A"/>
<path d="M357.373 108.63H346.406C345.893 108.63 345.473 108.21 345.473 107.696V102.328C345.473 101.814 345.893 101.394 346.406 101.394H357.373C357.886 101.394 358.306 101.814 358.306 102.328V107.696C358.306 108.21 357.886 108.63 357.373 108.63ZM347.339 106.762H356.439V103.261H347.339V106.762Z" fill="#4A4A4A"/>
<path d="M357.373 94.9518H346.406C345.893 94.9518 345.473 94.5317 345.473 94.0182V88.6497C345.473 88.1362 345.893 87.7161 346.406 87.7161H357.373C357.886 87.7161 358.306 88.1362 358.306 88.6497V94.0182C358.306 94.5317 357.886 94.9518 357.373 94.9518ZM347.339 93.0845H356.439V89.5834H347.339V93.0845Z" fill="#4A4A4A"/>
<path d="M357.373 81.3206H346.406C345.893 81.3206 345.473 80.9005 345.473 80.387V75.0185C345.473 74.505 345.893 74.0848 346.406 74.0848H357.373C357.886 74.0848 358.306 74.505 358.306 75.0185V80.387C358.306 80.9005 357.886 81.3206 357.373 81.3206ZM347.339 79.4066H356.439V75.9055H347.339V79.4066Z" fill="#4A4A4A"/>
<path d="M335.019 122.308H324.052C323.539 122.308 323.119 121.888 323.119 121.374V116.006C323.119 115.492 323.539 115.072 324.052 115.072H335.019C335.532 115.072 335.952 115.492 335.952 116.006V121.374C335.952 121.841 335.532 122.308 335.019 122.308ZM324.986 120.394H334.086V116.893H324.986V120.394Z" fill="#4A4A4A"/>
<path d="M335.019 108.63H324.052C323.539 108.63 323.119 108.21 323.119 107.696V102.328C323.119 101.814 323.539 101.394 324.052 101.394H335.019C335.532 101.394 335.952 101.814 335.952 102.328V107.696C335.952 108.21 335.532 108.63 335.019 108.63ZM324.986 106.762H334.086V103.261H324.986V106.762Z" fill="#4A4A4A"/>
<path d="M335.019 94.9518H324.052C323.539 94.9518 323.119 94.5317 323.119 94.0182V88.6497C323.119 88.1362 323.539 87.7161 324.052 87.7161H335.019C335.532 87.7161 335.952 88.1362 335.952 88.6497V94.0182C335.952 94.5317 335.532 94.9518 335.019 94.9518ZM324.986 93.0845H334.086V89.5834H324.986V93.0845Z" fill="#4A4A4A"/>
<path d="M335.019 81.3206H324.052C323.539 81.3206 323.119 80.9005 323.119 80.387V75.0185C323.119 74.505 323.539 74.0848 324.052 74.0848H335.019C335.532 74.0848 335.952 74.505 335.952 75.0185V80.387C335.952 80.9005 335.532 81.3206 335.019 81.3206ZM324.986 79.4066H334.086V75.9055H324.986V79.4066Z" fill="#4A4A4A"/>
<path d="M312.712 122.308H301.746C301.232 122.308 300.812 121.888 300.812 121.374V116.006C300.812 115.492 301.232 115.072 301.746 115.072H312.712C313.226 115.072 313.646 115.492 313.646 116.006V121.374C313.646 121.841 313.226 122.308 312.712 122.308ZM302.633 120.394H311.732V116.893H302.633V120.394Z" fill="#4A4A4A"/>
<path d="M312.712 108.63H301.746C301.232 108.63 300.812 108.21 300.812 107.696V102.328C300.812 101.814 301.232 101.394 301.746 101.394H312.712C313.226 101.394 313.646 101.814 313.646 102.328V107.696C313.646 108.21 313.226 108.63 312.712 108.63ZM302.633 106.762H311.732V103.261H302.633V106.762Z" fill="#4A4A4A"/>
<path d="M312.712 94.9518H301.746C301.232 94.9518 300.812 94.5317 300.812 94.0182V88.6497C300.812 88.1362 301.232 87.7161 301.746 87.7161H312.712C313.226 87.7161 313.646 88.1362 313.646 88.6497V94.0182C313.646 94.5317 313.226 94.9518 312.712 94.9518ZM302.633 93.0845H311.732V89.5834H302.633V93.0845Z" fill="#4A4A4A"/>
<path d="M312.712 81.3206H301.746C301.232 81.3206 300.812 80.9005 300.812 80.387V75.0185C300.812 74.505 301.232 74.0848 301.746 74.0848H312.712C313.226 74.0848 313.646 74.505 313.646 75.0185V80.387C313.646 80.9005 313.226 81.3206 312.712 81.3206ZM302.633 79.4066H311.732V75.9055H302.633V79.4066Z" fill="#4A4A4A"/>
<path d="M272.393 129.683H281.213C281.913 129.683 282.473 129.123 282.473 128.423C282.473 127.723 281.913 127.163 281.213 127.163H272.393C271.693 127.163 271.133 127.723 271.133 128.423C271.087 129.123 271.693 129.683 272.393 129.683Z" fill="#4A4A4A"/>
<path d="M279.488 125.155H274.121C273.421 125.155 272.861 124.595 272.861 123.895V112.925C272.861 112.224 273.421 111.664 274.121 111.664H279.488C280.188 111.664 280.748 112.224 280.748 112.925V123.895C280.748 124.595 280.188 125.155 279.488 125.155ZM275.381 122.634H278.228V114.185H275.381V122.634Z" fill="#4A4A4A"/>
<path d="M258.719 129.683H267.539C268.239 129.683 268.799 129.123 268.799 128.423C268.799 127.723 268.239 127.163 267.539 127.163H258.719C258.019 127.163 257.459 127.723 257.459 128.423C257.459 129.123 258.019 129.683 258.719 129.683Z" fill="#4A4A4A"/>
<path d="M265.812 125.155H260.446C259.746 125.155 259.186 124.595 259.186 123.895V112.925C259.186 112.224 259.746 111.664 260.446 111.664H265.812C266.512 111.664 267.072 112.224 267.072 112.925V123.895C267.072 124.595 266.512 125.155 265.812 125.155ZM261.706 122.634H264.552V114.185H261.706V122.634Z" fill="#4A4A4A"/>
<path d="M245.047 129.683H253.867C254.567 129.683 255.127 129.123 255.127 128.423C255.127 127.723 254.567 127.163 253.867 127.163H245.047C244.347 127.163 243.787 127.723 243.787 128.423C243.787 129.123 244.347 129.683 245.047 129.683Z" fill="#4A4A4A"/>
<path d="M252.14 125.155H246.774C246.074 125.155 245.514 124.595 245.514 123.895V112.925C245.514 112.224 246.074 111.664 246.774 111.664H252.14C252.84 111.664 253.4 112.224 253.4 112.925V123.895C253.447 124.595 252.84 125.155 252.14 125.155ZM248.034 122.634H250.88V114.185H248.034V122.634Z" fill="#4A4A4A"/>
<path d="M231.42 129.683H240.24C240.94 129.683 241.5 129.123 241.5 128.423C241.5 127.723 240.94 127.163 240.24 127.163H231.42C230.72 127.163 230.16 127.723 230.16 128.423C230.16 129.123 230.72 129.683 231.42 129.683Z" fill="#4A4A4A"/>
<path d="M238.513 125.155H233.147C232.447 125.155 231.887 124.595 231.887 123.895V112.925C231.887 112.224 232.447 111.664 233.147 111.664H238.513C239.213 111.664 239.773 112.224 239.773 112.925V123.895C239.773 124.595 239.213 125.155 238.513 125.155ZM234.407 122.634H237.253V114.185H234.407V122.634Z" fill="#4A4A4A"/>
<path d="M217.746 129.683H226.566C227.266 129.683 227.826 129.123 227.826 128.423C227.826 127.723 227.266 127.163 226.566 127.163H217.746C217.046 127.163 216.486 127.723 216.486 128.423C216.486 129.123 217.046 129.683 217.746 129.683Z" fill="#4A4A4A"/>
<path d="M224.84 125.155H219.473C218.773 125.155 218.213 124.595 218.213 123.895V112.925C218.213 112.224 218.773 111.664 219.473 111.664H224.84C225.54 111.664 226.1 112.224 226.1 112.925V123.895C226.1 124.595 225.54 125.155 224.84 125.155ZM220.733 122.634H223.58V114.185H220.733V122.634Z" fill="#4A4A4A"/>
<path d="M204.119 129.683H212.939C213.639 129.683 214.199 129.123 214.199 128.423C214.199 127.723 213.639 127.163 212.939 127.163H204.119C203.419 127.163 202.859 127.723 202.859 128.423C202.859 129.123 203.419 129.683 204.119 129.683Z" fill="#4A4A4A"/>
<path d="M211.213 125.155H205.846C205.146 125.155 204.586 124.595 204.586 123.895V112.925C204.586 112.224 205.146 111.664 205.846 111.664H211.213C211.913 111.664 212.473 112.224 212.473 112.925V123.895C212.473 124.595 211.913 125.155 211.213 125.155ZM207.106 122.634H209.953V114.185H207.106V122.634Z" fill="#4A4A4A"/>
<path d="M272.393 40.2868H281.213C281.913 40.2868 282.473 39.7266 282.473 39.0264C282.473 38.3262 281.913 37.766 281.213 37.766H272.393C271.693 37.766 271.133 38.3262 271.133 39.0264C271.087 39.7266 271.693 40.2868 272.393 40.2868Z" fill="#4A4A4A"/>
<path d="M279.488 35.7586H274.121C273.421 35.7586 272.861 35.1985 272.861 34.4982V23.5279C272.861 22.8276 273.421 22.2675 274.121 22.2675H279.488C280.188 22.2675 280.748 22.8276 280.748 23.5279V34.4982C280.748 35.1985 280.188 35.7586 279.488 35.7586ZM275.381 33.2378H278.228V24.7883H275.381V33.2378Z" fill="#4A4A4A"/>
<path d="M258.719 40.2868H267.539C268.239 40.2868 268.799 39.7266 268.799 39.0264C268.799 38.3262 268.239 37.766 267.539 37.766H258.719C258.019 37.766 257.459 38.3262 257.459 39.0264C257.459 39.7266 258.019 40.2868 258.719 40.2868Z" fill="#4A4A4A"/>
<path d="M265.812 35.7586H260.446C259.746 35.7586 259.186 35.1985 259.186 34.4982V23.5279C259.186 22.8276 259.746 22.2675 260.446 22.2675H265.812C266.512 22.2675 267.072 22.8276 267.072 23.5279V34.4982C267.072 35.1985 266.512 35.7586 265.812 35.7586ZM261.706 33.2378H264.552V24.7883H261.706V33.2378Z" fill="#4A4A4A"/>
<path d="M245.047 40.2868H253.867C254.567 40.2868 255.127 39.7266 255.127 39.0264C255.127 38.3262 254.567 37.766 253.867 37.766H245.047C244.347 37.766 243.787 38.3262 243.787 39.0264C243.787 39.7266 244.347 40.2868 245.047 40.2868Z" fill="#4A4A4A"/>
<path d="M252.14 35.7586H246.774C246.074 35.7586 245.514 35.1985 245.514 34.4982V23.5279C245.514 22.8276 246.074 22.2675 246.774 22.2675H252.14C252.84 22.2675 253.4 22.8276 253.4 23.5279V34.4982C253.447 35.1985 252.84 35.7586 252.14 35.7586ZM248.034 33.2378H250.88V24.7883H248.034V33.2378Z" fill="#4A4A4A"/>
<path d="M231.42 40.2868H240.24C240.94 40.2868 241.5 39.7266 241.5 39.0264C241.5 38.3262 240.94 37.766 240.24 37.766H231.42C230.72 37.766 230.16 38.3262 230.16 39.0264C230.16 39.7266 230.72 40.2868 231.42 40.2868Z" fill="#4A4A4A"/>
<path d="M238.513 35.7586H233.147C232.447 35.7586 231.887 35.1985 231.887 34.4982V23.5279C231.887 22.8276 232.447 22.2675 233.147 22.2675H238.513C239.213 22.2675 239.773 22.8276 239.773 23.5279V34.4982C239.773 35.1985 239.213 35.7586 238.513 35.7586ZM234.407 33.2378H237.253V24.7883H234.407V33.2378Z" fill="#4A4A4A"/>
<path d="M217.746 40.2868H226.566C227.266 40.2868 227.826 39.7266 227.826 39.0264C227.826 38.3262 227.266 37.766 226.566 37.766H217.746C217.046 37.766 216.486 38.3262 216.486 39.0264C216.486 39.7266 217.046 40.2868 217.746 40.2868Z" fill="#4A4A4A"/>
<path d="M224.84 35.7586H219.473C218.773 35.7586 218.213 35.1985 218.213 34.4982V23.5279C218.213 22.8276 218.773 22.2675 219.473 22.2675H224.84C225.54 22.2675 226.1 22.8276 226.1 23.5279V34.4982C226.1 35.1985 225.54 35.7586 224.84 35.7586ZM220.733 33.2378H223.58V24.7883H220.733V33.2378Z" fill="#4A4A4A"/>
<path d="M204.119 40.2868H212.939C213.639 40.2868 214.199 39.7266 214.199 39.0264C214.199 38.3262 213.639 37.766 212.939 37.766H204.119C203.419 37.766 202.859 38.3262 202.859 39.0264C202.859 39.7266 203.419 40.2868 204.119 40.2868Z" fill="#4A4A4A"/>
<path d="M211.213 35.7586H205.846C205.146 35.7586 204.586 35.1985 204.586 34.4982V23.5279C204.586 22.8276 205.146 22.2675 205.846 22.2675H211.213C211.913 22.2675 212.473 22.8276 212.473 23.5279V34.4982C212.473 35.1985 211.913 35.7586 211.213 35.7586ZM207.106 33.2378H209.953V24.7883H207.106V33.2378Z" fill="#4A4A4A"/>
<path d="M272.393 62.6477H281.213C281.913 62.6477 282.473 62.0875 282.473 61.3872C282.473 60.687 281.913 60.1268 281.213 60.1268H272.393C271.693 60.1268 271.133 60.687 271.133 61.3872C271.087 62.0875 271.693 62.6477 272.393 62.6477Z" fill="#4A4A4A"/>
<path d="M279.488 58.1195H274.121C273.421 58.1195 272.861 57.5593 272.861 56.8591V45.8887C272.861 45.1885 273.421 44.6283 274.121 44.6283H279.488C280.188 44.6283 280.748 45.1885 280.748 45.8887V56.8591C280.748 57.5593 280.188 58.1195 279.488 58.1195ZM275.381 55.5986H278.228V47.1491H275.381V55.5986Z" fill="#4A4A4A"/>
<path d="M258.719 62.6477H267.539C268.239 62.6477 268.799 62.0875 268.799 61.3872C268.799 60.687 268.239 60.1268 267.539 60.1268H258.719C258.019 60.1268 257.459 60.687 257.459 61.3872C257.459 62.0875 258.019 62.6477 258.719 62.6477Z" fill="#4A4A4A"/>
<path d="M265.812 58.1195H260.446C259.746 58.1195 259.186 57.5593 259.186 56.8591V45.8887C259.186 45.1885 259.746 44.6283 260.446 44.6283H265.812C266.512 44.6283 267.072 45.1885 267.072 45.8887V56.8591C267.072 57.5593 266.512 58.1195 265.812 58.1195ZM261.706 55.5986H264.552V47.1491H261.706V55.5986Z" fill="#4A4A4A"/>
<path d="M245.047 62.6477H253.867C254.567 62.6477 255.127 62.0875 255.127 61.3872C255.127 60.687 254.567 60.1268 253.867 60.1268H245.047C244.347 60.1268 243.787 60.687 243.787 61.3872C243.787 62.0875 244.347 62.6477 245.047 62.6477Z" fill="#4A4A4A"/>
<path d="M252.14 58.1195H246.774C246.074 58.1195 245.514 57.5593 245.514 56.8591V45.8887C245.514 45.1885 246.074 44.6283 246.774 44.6283H252.14C252.84 44.6283 253.4 45.1885 253.4 45.8887V56.8591C253.447 57.5593 252.84 58.1195 252.14 58.1195ZM248.034 55.5986H250.88V47.1491H248.034V55.5986Z" fill="#4A4A4A"/>
<path d="M231.42 62.6477H240.24C240.94 62.6477 241.5 62.0875 241.5 61.3872C241.5 60.687 240.94 60.1268 240.24 60.1268H231.42C230.72 60.1268 230.16 60.687 230.16 61.3872C230.16 62.0875 230.72 62.6477 231.42 62.6477Z" fill="#4A4A4A"/>
<path d="M238.513 58.1195H233.147C232.447 58.1195 231.887 57.5593 231.887 56.8591V45.8887C231.887 45.1885 232.447 44.6283 233.147 44.6283H238.513C239.213 44.6283 239.773 45.1885 239.773 45.8887V56.8591C239.773 57.5593 239.213 58.1195 238.513 58.1195ZM234.407 55.5986H237.253V47.1491H234.407V55.5986Z" fill="#4A4A4A"/>
<path d="M217.746 62.6477H226.566C227.266 62.6477 227.826 62.0875 227.826 61.3872C227.826 60.687 227.266 60.1268 226.566 60.1268H217.746C217.046 60.1268 216.486 60.687 216.486 61.3872C216.486 62.0875 217.046 62.6477 217.746 62.6477Z" fill="#4A4A4A"/>
<path d="M224.84 58.1195H219.473C218.773 58.1195 218.213 57.5593 218.213 56.8591V45.8887C218.213 45.1885 218.773 44.6283 219.473 44.6283H224.84C225.54 44.6283 226.1 45.1885 226.1 45.8887V56.8591C226.1 57.5593 225.54 58.1195 224.84 58.1195ZM220.733 55.5986H223.58V47.1491H220.733V55.5986Z" fill="#4A4A4A"/>
<path d="M204.119 62.6477H212.939C213.639 62.6477 214.199 62.0875 214.199 61.3872C214.199 60.687 213.639 60.1268 212.939 60.1268H204.119C203.419 60.1268 202.859 60.687 202.859 61.3872C202.859 62.0875 203.419 62.6477 204.119 62.6477Z" fill="#4A4A4A"/>
<path d="M211.213 58.1195H205.846C205.146 58.1195 204.586 57.5593 204.586 56.8591V45.8887C204.586 45.1885 205.146 44.6283 205.846 44.6283H211.213C211.913 44.6283 212.473 45.1885 212.473 45.8887V56.8591C212.473 57.5593 211.913 58.1195 211.213 58.1195ZM207.106 55.5986H209.953V47.1491H207.106V55.5986Z" fill="#4A4A4A"/>
<path d="M272.393 85.0085H281.213C281.913 85.0085 282.473 84.4483 282.473 83.7481C282.473 83.0479 281.913 82.4877 281.213 82.4877H272.393C271.693 82.4877 271.133 83.0479 271.133 83.7481C271.133 84.4483 271.693 85.0085 272.393 85.0085Z" fill="#4A4A4A"/>
<path d="M279.486 80.4803H274.119C273.419 80.4803 272.859 79.9201 272.859 79.2199V68.2496C272.859 67.5493 273.419 66.9891 274.119 66.9891H279.486C280.186 66.9891 280.746 67.5493 280.746 68.2496V79.2199C280.746 79.9201 280.186 80.4803 279.486 80.4803ZM275.379 77.9595H278.226V69.51H275.379V77.9595Z" fill="#4A4A4A"/>
<path d="M258.719 85.0085H267.539C268.239 85.0085 268.799 84.4483 268.799 83.7481C268.799 83.0479 268.239 82.4877 267.539 82.4877H258.719C258.019 82.4877 257.459 83.0479 257.459 83.7481C257.459 84.4483 258.019 85.0085 258.719 85.0085Z" fill="#4A4A4A"/>
<path d="M265.812 80.4803H260.446C259.746 80.4803 259.186 79.9201 259.186 79.2199V68.2496C259.186 67.5493 259.746 66.9891 260.446 66.9891H265.812C266.512 66.9891 267.072 67.5493 267.072 68.2496V79.2199C267.072 79.9201 266.512 80.4803 265.812 80.4803ZM261.706 77.9595H264.552V69.51H261.706V77.9595Z" fill="#4A4A4A"/>
<path d="M245.047 85.0085H253.867C254.567 85.0085 255.127 84.4483 255.127 83.7481C255.127 83.0479 254.567 82.4877 253.867 82.4877H245.047C244.347 82.4877 243.787 83.0479 243.787 83.7481C243.787 84.4483 244.347 85.0085 245.047 85.0085Z" fill="#4A4A4A"/>
<path d="M252.14 80.4803H246.774C246.074 80.4803 245.514 79.9201 245.514 79.2199V68.2496C245.514 67.5493 246.074 66.9891 246.774 66.9891H252.14C252.84 66.9891 253.4 67.5493 253.4 68.2496V79.2199C253.447 79.9201 252.84 80.4803 252.14 80.4803ZM248.034 77.9595H250.88V69.51H248.034V77.9595Z" fill="#4A4A4A"/>
<path d="M231.42 85.0085H240.24C240.94 85.0085 241.5 84.4483 241.5 83.7481C241.5 83.0479 240.94 82.4877 240.24 82.4877H231.42C230.72 82.4877 230.16 83.0479 230.16 83.7481C230.16 84.4483 230.72 85.0085 231.42 85.0085Z" fill="#4A4A4A"/>
<path d="M238.513 80.4803H233.147C232.447 80.4803 231.887 79.9201 231.887 79.2199V68.2496C231.887 67.5493 232.447 66.9891 233.147 66.9891H238.513C239.213 66.9891 239.773 67.5493 239.773 68.2496V79.2199C239.773 79.9201 239.213 80.4803 238.513 80.4803ZM234.407 77.9595H237.253V69.51H234.407V77.9595Z" fill="#4A4A4A"/>
<path d="M217.746 85.0085H226.566C227.266 85.0085 227.826 84.4483 227.826 83.7481C227.826 83.0479 227.266 82.4877 226.566 82.4877H217.746C217.046 82.4877 216.486 83.0479 216.486 83.7481C216.486 84.4483 217.046 85.0085 217.746 85.0085Z" fill="#4A4A4A"/>
<path d="M224.84 80.4803H219.473C218.773 80.4803 218.213 79.9201 218.213 79.2199V68.2496C218.213 67.5493 218.773 66.9891 219.473 66.9891H224.84C225.54 66.9891 226.1 67.5493 226.1 68.2496V79.2199C226.1 79.9201 225.54 80.4803 224.84 80.4803ZM220.733 77.9595H223.58V69.51H220.733V77.9595Z" fill="#4A4A4A"/>
<path d="M204.119 85.0085H212.939C213.639 85.0085 214.199 84.4483 214.199 83.7481C214.199 83.0479 213.639 82.4877 212.939 82.4877H204.119C203.419 82.4877 202.859 83.0479 202.859 83.7481C202.859 84.4483 203.419 85.0085 204.119 85.0085Z" fill="#4A4A4A"/>
<path d="M211.213 80.4803H205.846C205.146 80.4803 204.586 79.9201 204.586 79.2199V68.2496C204.586 67.5493 205.146 66.9891 205.846 66.9891H211.213C211.913 66.9891 212.473 67.5493 212.473 68.2496V79.2199C212.473 79.9201 211.913 80.4803 211.213 80.4803ZM207.106 77.9595H209.953V69.51H207.106V77.9595Z" fill="#4A4A4A"/>
<path d="M272.393 107.369H281.213C281.913 107.369 282.473 106.809 282.473 106.109C282.473 105.409 281.913 104.849 281.213 104.849H272.393C271.693 104.849 271.133 105.409 271.133 106.109C271.087 106.809 271.693 107.369 272.393 107.369Z" fill="#4A4A4A"/>
<path d="M279.488 102.841H274.121C273.421 102.841 272.861 102.281 272.861 101.581V90.6104C272.861 89.9102 273.421 89.35 274.121 89.35H279.488C280.188 89.35 280.748 89.9102 280.748 90.6104V101.581C280.748 102.281 280.188 102.841 279.488 102.841ZM275.381 100.32H278.228V91.8708H275.381V100.32Z" fill="#4A4A4A"/>
<path d="M258.719 107.369H267.539C268.239 107.369 268.799 106.809 268.799 106.109C268.799 105.409 268.239 104.849 267.539 104.849H258.719C258.019 104.849 257.459 105.409 257.459 106.109C257.459 106.809 258.019 107.369 258.719 107.369Z" fill="#4A4A4A"/>
<path d="M265.812 102.841H260.446C259.746 102.841 259.186 102.281 259.186 101.581V90.6104C259.186 89.9102 259.746 89.35 260.446 89.35H265.812C266.512 89.35 267.072 89.9102 267.072 90.6104V101.581C267.072 102.281 266.512 102.841 265.812 102.841ZM261.706 100.32H264.552V91.8708H261.706V100.32Z" fill="#4A4A4A"/>
<path d="M245.047 107.369H253.867C254.567 107.369 255.127 106.809 255.127 106.109C255.127 105.409 254.567 104.849 253.867 104.849H245.047C244.347 104.849 243.787 105.409 243.787 106.109C243.787 106.809 244.347 107.369 245.047 107.369Z" fill="#4A4A4A"/>
<path d="M252.14 102.841H246.774C246.074 102.841 245.514 102.281 245.514 101.581V90.6104C245.514 89.9102 246.074 89.35 246.774 89.35H252.14C252.84 89.35 253.4 89.9102 253.4 90.6104V101.581C253.447 102.281 252.84 102.841 252.14 102.841ZM248.034 100.32H250.88V91.8708H248.034V100.32Z" fill="#4A4A4A"/>
<path d="M231.42 107.369H240.24C240.94 107.369 241.5 106.809 241.5 106.109C241.5 105.409 240.94 104.849 240.24 104.849H231.42C230.72 104.849 230.16 105.409 230.16 106.109C230.16 106.809 230.72 107.369 231.42 107.369Z" fill="#4A4A4A"/>
<path d="M238.513 102.841H233.147C232.447 102.841 231.887 102.281 231.887 101.581V90.6104C231.887 89.9102 232.447 89.35 233.147 89.35H238.513C239.213 89.35 239.773 89.9102 239.773 90.6104V101.581C239.773 102.281 239.213 102.841 238.513 102.841ZM234.407 100.32H237.253V91.8708H234.407V100.32Z" fill="#4A4A4A"/>
<path d="M217.746 107.369H226.566C227.266 107.369 227.826 106.809 227.826 106.109C227.826 105.409 227.266 104.849 226.566 104.849H217.746C217.046 104.849 216.486 105.409 216.486 106.109C216.486 106.809 217.046 107.369 217.746 107.369Z" fill="#4A4A4A"/>
<path d="M224.84 102.841H219.473C218.773 102.841 218.213 102.281 218.213 101.581V90.6104C218.213 89.9102 218.773 89.35 219.473 89.35H224.84C225.54 89.35 226.1 89.9102 226.1 90.6104V101.581C226.1 102.281 225.54 102.841 224.84 102.841ZM220.733 100.32H223.58V91.8708H220.733V100.32Z" fill="#4A4A4A"/>
<path d="M204.119 107.369H212.939C213.639 107.369 214.199 106.809 214.199 106.109C214.199 105.409 213.639 104.849 212.939 104.849H204.119C203.419 104.849 202.859 105.409 202.859 106.109C202.859 106.809 203.419 107.369 204.119 107.369Z" fill="#4A4A4A"/>
<path d="M211.213 102.841H205.846C205.146 102.841 204.586 102.281 204.586 101.581V90.6104C204.586 89.9102 205.146 89.35 205.846 89.35H211.213C211.913 89.35 212.473 89.9102 212.473 90.6104V101.581C212.473 102.281 211.913 102.841 211.213 102.841ZM207.106 100.32H209.953V91.8708H207.106V100.32Z" fill="#4A4A4A"/>
<path d="M188.906 17.926H282.006C282.706 17.926 283.266 17.3658 283.266 16.6656C283.266 15.9654 282.706 15.4052 282.006 15.4052H188.906C188.206 15.4052 187.646 15.9654 187.646 16.6656C187.646 17.3658 188.206 17.926 188.906 17.926Z" fill="#4A4A4A"/>
<path d="M247.286 12.4175H225.539C224.839 12.4175 224.232 11.8573 224.232 11.1104V6.39548C224.232 5.69525 224.792 5.08838 225.539 5.08838H247.286C247.986 5.08838 248.592 5.64857 248.592 6.39548V11.1104C248.592 11.8106 247.986 12.4175 247.286 12.4175ZM226.799 9.89666H246.072V7.65591H226.799V9.89666Z" fill="#4A4A4A"/>
<path d="M195.811 163.824H148.951C148.177 163.824 147.506 163.265 147.506 162.52V59.6875C147.506 58.9892 148.125 58.384 148.951 58.384H195.811C196.586 58.384 197.256 58.9427 197.256 59.6875V162.52C197.256 163.219 196.586 163.824 195.811 163.824ZM150.344 161.31H194.47V60.9444H150.344V161.31Z" fill="#4A4A4A"/>
<path d="M213.509 148.963H203.803C203.103 148.963 202.496 148.403 202.496 147.656V137.946C202.496 137.246 203.056 136.639 203.803 136.639H213.509C214.209 136.639 214.816 137.199 214.816 137.946V147.656C214.816 148.403 214.209 148.963 213.509 148.963ZM205.016 146.442H212.296V139.16H205.016V146.442Z" fill="#4A4A4A"/>
<path d="M290.402 163.824H232.417C231.817 163.824 231.297 163.274 231.297 162.542V135.478C231.297 134.791 231.777 134.196 232.417 134.196H290.402C291.001 134.196 291.521 134.746 291.521 135.478V162.542C291.481 163.229 291.001 163.824 290.402 163.824ZM233.456 161.351H289.322V136.715H233.456V161.351Z" fill="#4A4A4A"/>
<path d="M265.676 155.841H257.043C256.343 155.841 255.736 155.281 255.736 154.534V144.684C255.736 143.984 256.296 143.377 257.043 143.377H265.676C266.376 143.377 266.983 143.937 266.983 144.684V154.534C266.983 155.234 266.376 155.841 265.676 155.841ZM258.256 153.32H264.463V145.944H258.256V153.32Z" fill="#4A4A4A"/>
<path d="M283.133 155.841H274.5C273.8 155.841 273.193 155.281 273.193 154.534V144.684C273.193 143.984 273.753 143.377 274.5 143.377H283.133C283.833 143.377 284.44 143.937 284.44 144.684V154.534C284.44 155.234 283.88 155.841 283.133 155.841ZM275.713 153.32H281.92V145.944H275.713V153.32Z" fill="#4A4A4A"/>
<path d="M247.706 155.841H239.072C238.372 155.841 237.766 155.281 237.766 154.534V144.684C237.766 143.984 238.326 143.377 239.072 143.377H247.706C248.406 143.377 249.012 143.937 249.012 144.684V154.534C249.012 155.234 248.406 155.841 247.706 155.841ZM240.286 153.32H246.492V145.944H240.286V153.32Z" fill="#4A4A4A"/>
<path d="M66.3147 142.288C65.6147 142.288 65.0547 141.728 65.0547 141.027C65.0547 140.327 65.6147 139.767 66.3147 139.767C67.0147 139.767 67.5747 140.327 67.5747 141.027C67.5747 141.728 67.0147 142.288 66.3147 142.288Z" fill="#4A4A4A"/>
<path d="M41.0686 143.595C40.3686 143.595 39.8086 143.035 39.8086 142.334C39.8086 141.634 40.3686 141.074 41.0686 141.074C41.7686 141.074 42.3286 141.634 42.3286 142.334C42.3286 143.035 41.7686 143.595 41.0686 143.595Z" fill="#4A4A4A"/>
<path d="M95.0135 156.106C99.0735 154.378 101.734 150.457 101.78 146.116C101.594 140.14 96.6935 135.332 90.6735 135.332C87.0802 135.332 83.8602 137.059 81.8535 139.72V135.939C84.2335 133.932 87.3135 132.718 90.6735 132.718C98.1402 132.718 104.207 138.693 104.394 146.116C104.3 151.531 101.034 156.432 95.9935 158.533C95.3402 158.813 94.5469 158.486 94.2669 157.833C94.0335 157.179 94.3602 156.386 95.0135 156.106Z" fill="#4A4A4A"/>
<path d="M92.0278 145.602C92.0278 146.302 91.4678 146.863 90.7678 146.863C90.0678 146.863 89.5078 146.302 89.5078 145.602C89.5078 144.902 90.0678 144.342 90.7678 144.342C91.4211 144.342 92.0278 144.902 92.0278 145.602Z" fill="#4A4A4A"/>
<path d="M41.0677 122.214C44.801 122.214 48.2077 123.708 50.681 126.136V130.384C48.7677 127.069 45.1743 124.829 41.0677 124.829C34.9543 124.829 29.961 129.824 29.961 135.939V145.882C29.961 151.578 34.2543 156.246 39.761 156.899V147.143C39.761 146.396 40.3677 145.836 41.0677 145.836C41.8143 145.836 42.3743 146.442 42.3743 147.143V163.948C42.3743 164.695 41.7677 165.255 41.0677 165.255C40.321 165.255 39.761 164.649 39.761 163.948V159.56C32.8077 158.907 27.3477 153.025 27.3477 145.882V135.939C27.3477 128.376 33.5077 122.214 41.0677 122.214Z" fill="#4A4A4A"/>
<path d="M45.3616 156.106C48.0682 154.939 50.1682 152.791 51.2882 150.224C51.6149 151.344 52.0349 152.418 52.5949 153.398C51.1482 155.639 49.0016 157.459 46.4349 158.58C45.7816 158.86 44.9882 158.533 44.7082 157.88C44.3816 157.179 44.7082 156.386 45.3616 156.106Z" fill="#4A4A4A"/>
<path d="M89.4155 156.899V150.924C89.4155 150.177 90.0221 149.617 90.7221 149.617C91.4688 149.617 92.0288 150.224 92.0288 150.924V163.995C92.0288 164.742 91.4221 165.302 90.7221 165.302C89.9754 165.302 89.4155 164.695 89.4155 163.995V159.607C85.4021 159.233 81.9021 157.133 79.6621 154.005C80.1754 153.118 80.6421 152.184 81.0154 151.204C82.6488 154.285 85.7755 156.479 89.4155 156.899Z" fill="#4A4A4A"/>
<path d="M52.5469 119.507C52.5469 111.944 58.7069 105.782 66.2669 105.782C73.8269 105.782 79.9869 111.944 79.9869 119.507V145.882C79.9869 151.391 76.6735 156.386 71.5869 158.533C70.9335 158.813 70.1402 158.487 69.8602 157.833C69.5802 157.179 69.9069 156.386 70.5602 156.106C74.6669 154.332 77.3735 150.317 77.3735 145.882V119.507C77.3735 113.391 72.3802 108.396 66.2669 108.396C60.1535 108.396 55.1602 113.391 55.1602 119.507V145.882C55.1602 151.578 59.4535 156.246 64.9602 156.899V147.143C64.9602 146.396 65.5669 145.836 66.2669 145.836C67.0135 145.836 67.5735 146.442 67.5735 147.143V163.948C67.5735 164.695 66.9669 165.255 66.2669 165.255C65.5202 165.255 64.9602 164.649 64.9602 163.948V159.56C58.0069 158.907 52.5469 153.025 52.5469 145.882V119.507Z" fill="#4A4A4A"/>
<path d="M30.6608 115.912H30.8475C31.1742 115.912 31.5475 115.772 31.7808 115.539C32.0142 115.305 32.1542 114.979 32.1542 114.605C32.1542 113.718 32.4808 112.878 33.1342 112.271C33.7408 111.664 34.5808 111.337 35.3742 111.337C36.1208 111.337 36.7275 110.777 36.7275 110.03C36.7275 109.283 36.1675 108.676 35.4208 108.676C33.9275 108.63 32.3875 109.237 31.2675 110.357C31.0808 110.544 30.8942 110.777 30.7075 110.964C30.5208 110.73 30.3342 110.544 30.1475 110.357C29.0275 109.283 27.5342 108.676 25.9942 108.676C25.2475 108.676 24.6875 109.283 24.6875 110.03C24.6875 110.73 25.2942 111.337 25.9942 111.337C26.0408 111.337 26.0408 111.337 26.0875 111.337C26.8808 111.337 27.6742 111.664 28.2808 112.271C28.9342 112.878 29.2608 113.718 29.2608 114.605C29.2608 114.932 29.4008 115.305 29.6342 115.539C29.9608 115.772 30.3342 115.912 30.6608 115.912Z" fill="#4A4A4A"/>
<path d="M18.1061 107.93H18.2928C18.6195 107.93 18.9928 107.789 19.2261 107.556C19.4595 107.323 19.5995 106.996 19.5995 106.622C19.5995 105.735 19.9261 104.895 20.5795 104.288C21.1861 103.681 21.9795 103.355 22.8195 103.355C23.5661 103.401 24.1728 102.794 24.1728 102.048C24.1728 101.301 23.6128 100.694 22.8661 100.694C21.3261 100.647 19.8328 101.254 18.7128 102.374C18.5261 102.561 18.3395 102.794 18.1528 102.981C17.9661 102.748 17.7795 102.561 17.5928 102.374C16.4728 101.301 14.9328 100.694 13.4395 100.694C12.6928 100.694 12.1328 101.301 12.1328 102.048C12.1328 102.748 12.7395 103.355 13.4395 103.355C13.4861 103.355 13.4861 103.355 13.5328 103.355C14.3261 103.355 15.1195 103.681 15.7261 104.288C16.3795 104.895 16.7061 105.735 16.7061 106.622C16.7061 106.996 16.8461 107.323 17.0795 107.556C17.4061 107.789 17.7328 107.93 18.1061 107.93Z" fill="#4A4A4A"/>
<path d="M17.8252 121.467H17.9652C18.2919 121.467 18.6652 121.327 18.8985 121.094C19.1319 120.861 19.2719 120.534 19.2719 120.16C19.2719 119.74 19.4585 119.32 19.7385 119.04C20.0185 118.76 20.4385 118.62 20.8119 118.62C20.8119 118.62 20.8119 118.62 20.8585 118.62C21.5585 118.62 22.1652 118.06 22.1652 117.313C22.1652 116.566 21.6052 115.959 20.8585 115.959C19.7385 115.912 18.7119 116.379 17.9185 117.126C17.1252 116.332 16.0519 115.912 14.9785 115.959C14.2319 115.959 13.6719 116.566 13.6719 117.313C13.6719 118.06 14.2785 118.62 15.0252 118.62C15.3985 118.62 15.7719 118.76 16.0985 119.04C16.4252 119.32 16.5652 119.74 16.5652 120.16C16.5652 120.487 16.7052 120.861 16.9385 121.094C17.1252 121.327 17.4985 121.467 17.8252 121.467Z" fill="#4A4A4A"/>
<path d="M554.167 65.1219C554.54 65.1219 554.867 64.9818 555.147 64.7017L559.954 59.3332C560.42 58.7731 560.42 57.9795 559.86 57.466C559.3 56.9991 558.507 56.9991 557.993 57.5593L553.187 62.9278C552.72 63.488 552.72 64.2816 553.28 64.7951C553.513 64.9818 553.84 65.1219 554.167 65.1219Z" fill="#4A4A4A"/>
<path d="M548.052 65.1219C548.425 65.1219 548.751 64.9818 549.031 64.7017L553.838 59.3332C554.305 58.7731 554.305 57.9795 553.745 57.466C553.185 56.9991 552.391 56.9991 551.878 57.5593L547.072 62.9278C546.605 63.488 546.605 64.2816 547.165 64.7951C547.398 64.9818 547.725 65.1219 548.052 65.1219Z" fill="#4A4A4A"/>
<path d="M541.938 65.1219C542.312 65.1219 542.638 64.9818 542.918 64.7017L547.725 59.3332C548.191 58.7731 548.192 57.9795 547.632 57.466C547.072 56.9991 546.278 56.9991 545.765 57.5593L540.958 62.9278C540.492 63.488 540.492 64.2816 541.052 64.7951C541.332 64.9818 541.612 65.1219 541.938 65.1219Z" fill="#4A4A4A"/>
<path d="M535.825 65.1219C536.198 65.1219 536.525 64.9818 536.805 64.7017L541.612 59.3332C542.078 58.7731 542.078 57.9795 541.518 57.466C540.958 56.9991 540.165 56.9991 539.652 57.5593L534.845 62.9278C534.378 63.488 534.378 64.2816 534.938 64.7951C535.218 64.9818 535.545 65.1219 535.825 65.1219Z" fill="#4A4A4A"/>
<path d="M566.626 54.9918C565.319 54.9918 564.059 54.6183 562.939 53.9648C561.632 54.665 560.186 54.9918 558.692 54.9918C557.059 54.9918 555.519 54.5716 554.119 53.778C552.579 54.5716 550.852 54.9918 549.079 54.9918C547.726 54.9918 546.372 54.7584 545.112 54.2449C543.946 54.7584 542.732 54.9918 541.472 54.9918C539.979 54.9918 538.532 54.6183 537.226 53.9648C536.106 54.665 534.846 54.9918 533.539 54.9918C529.666 54.9918 526.539 51.8641 526.539 47.9894C526.539 44.1615 529.666 41.0338 533.492 40.9871C535.079 38.2795 538.019 36.5523 541.192 36.4589C543.246 34.3115 546.092 33.0978 549.079 33.0978C552.159 33.0978 555.006 34.3582 557.059 36.599C557.572 36.5056 558.132 36.4589 558.692 36.4589C561.959 36.4589 564.992 38.2328 566.672 40.9871C570.499 40.9871 573.626 44.1148 573.626 47.9894C573.626 51.8641 570.499 54.9918 566.626 54.9918ZM563.032 51.0705C563.312 51.0705 563.639 51.1638 563.872 51.3506C564.666 52.0041 565.646 52.3309 566.626 52.3309C569.006 52.3309 570.966 50.3702 570.966 47.9894C570.966 45.6086 569.006 43.648 566.626 43.648C566.439 43.648 566.252 43.648 566.066 43.6947C565.506 43.788 564.946 43.4613 564.712 42.9477C563.639 40.6136 561.259 39.1198 558.692 39.1198C558.086 39.1198 557.526 39.2132 556.966 39.3532C556.452 39.4933 555.939 39.3065 555.566 38.8864C553.979 36.879 551.599 35.7587 549.079 35.7587C546.652 35.7587 544.366 36.8324 542.779 38.653C542.499 38.9798 542.126 39.1198 541.706 39.1198C541.612 39.1198 541.519 39.1198 541.472 39.1198C538.906 39.1198 536.572 40.6136 535.452 42.9477C535.219 43.4613 534.659 43.788 534.099 43.6947C533.912 43.648 533.726 43.648 533.539 43.648C531.159 43.648 529.199 45.6086 529.199 47.9894C529.199 50.3702 531.159 52.3309 533.539 52.3309C534.566 52.3309 535.546 51.9574 536.292 51.3506C536.759 50.9771 537.366 50.9304 537.832 51.2572C538.906 51.9574 540.166 52.3309 541.426 52.3309C542.499 52.3309 543.479 52.0975 544.412 51.6307C544.786 51.4439 545.206 51.4439 545.579 51.584C546.652 52.0975 547.819 52.3309 549.032 52.3309C550.572 52.3309 552.066 51.9108 553.372 51.0705C553.839 50.7904 554.399 50.7904 554.819 51.1172C555.939 51.9108 557.246 52.3309 558.599 52.3309C559.906 52.3309 561.119 51.9574 562.192 51.2572C562.519 51.1172 562.752 51.0705 563.032 51.0705Z" fill="#4A4A4A"/>
<path d="M537.834 115.632H550.807C551.554 115.632 552.114 115.025 552.114 114.325C552.114 113.625 551.507 113.018 550.807 113.018H537.834C537.087 113.018 536.527 113.625 536.527 114.325C536.527 115.025 537.087 115.632 537.834 115.632Z" fill="#4A4A4A"/>
<path d="M531.767 114.838C532.514 114.838 533.074 114.232 533.074 113.531C533.074 112.784 532.467 112.224 531.767 112.224C527.427 112.224 523.88 108.676 523.88 104.335C523.88 99.9935 527.427 96.4457 531.767 96.4457C536.107 96.4457 539.654 99.9935 539.654 104.335C539.654 105.082 540.26 105.642 540.96 105.642C541.66 105.642 542.267 105.035 542.267 104.335C542.267 98.4997 537.554 93.7848 531.72 93.7848C525.887 93.7848 521.174 98.4997 521.174 104.335C521.22 110.124 525.934 114.838 531.767 114.838Z" fill="#4A4A4A"/>
<path d="M531.674 111.011H543.34C544.087 111.011 544.647 110.404 544.647 109.703C544.647 108.957 544.04 108.396 543.34 108.396H531.674C530.927 108.396 530.367 109.003 530.367 109.703C530.367 110.404 530.974 111.011 531.674 111.011Z" fill="#4A4A4A"/>
<path d="M532.001 111.011C532.748 111.011 533.308 110.404 533.308 109.703C533.308 108.957 532.701 108.396 532.001 108.396C529.948 108.396 528.268 106.716 528.268 104.662C528.268 102.608 529.948 100.927 532.001 100.927C534.054 100.927 535.734 102.608 535.734 104.662C535.734 105.409 536.341 105.969 537.041 105.969C537.741 105.969 538.348 105.362 538.348 104.662C538.348 101.161 535.501 98.313 532.001 98.313C528.501 98.313 525.654 101.161 525.654 104.662C525.654 108.163 528.501 111.011 532.001 111.011Z" fill="#4A4A4A"/>
<path d="M50.166 82.3476H63.1394C63.886 82.3476 64.446 81.7408 64.446 81.0405C64.446 80.3403 63.8394 79.7334 63.1394 79.7334H50.166C49.4194 79.7334 48.8594 80.3403 48.8594 81.0405C48.8594 81.7408 49.4194 82.3476 50.166 82.3476Z" fill="#4A4A4A"/>
<path d="M44.0992 81.554C44.8459 81.554 45.4059 80.9472 45.4059 80.2469C45.4059 79.5467 44.7992 78.9398 44.0992 78.9398C39.7592 78.9398 36.2125 75.392 36.2125 71.0505C36.2125 66.709 39.7592 63.1612 44.0992 63.1612C48.4392 63.1612 51.9859 66.709 51.9859 71.0505C51.9859 71.7974 52.5925 72.3576 53.2925 72.3576C53.9925 72.3576 54.5992 71.7507 54.5992 71.0505C54.5992 65.2152 49.8859 60.5003 44.0525 60.5003C38.2192 60.5003 33.5059 65.2152 33.5059 71.0505C33.5525 76.7924 38.2659 81.554 44.0992 81.554Z" fill="#4A4A4A"/>
<path d="M44.0059 77.6794H55.6726C56.4192 77.6794 56.9792 77.0725 56.9792 76.3723C56.9792 75.6254 56.3726 75.0652 55.6726 75.0652H44.0059C43.2592 75.0652 42.6992 75.6721 42.6992 76.3723C42.6992 77.0725 43.3059 77.6794 44.0059 77.6794Z" fill="#4A4A4A"/>
<path d="M44.3799 77.6794C45.1265 77.6794 45.6865 77.0725 45.6865 76.3723C45.6865 75.6254 45.0799 75.0652 44.3799 75.0652C42.3265 75.0652 40.6465 73.3846 40.6465 71.3306C40.6465 69.2766 42.3265 67.596 44.3799 67.596C46.4332 67.596 48.1132 69.2766 48.1132 71.3306C48.1132 72.0775 48.7199 72.6377 49.4199 72.6377C50.1665 72.6377 50.7265 72.0309 50.7265 71.3306C50.7265 67.8294 47.8799 64.9818 44.3799 64.9818C40.8799 64.9818 38.0332 67.8294 38.0332 71.3306C38.0332 74.8318 40.8799 77.6794 44.3799 77.6794Z" fill="#4A4A4A"/>
<path d="M650.859 109.89H663.833C664.579 109.89 665.139 109.283 665.139 108.583C665.139 107.883 664.533 107.276 663.833 107.276H650.859C650.113 107.276 649.553 107.883 649.553 108.583C649.553 109.283 650.113 109.89 650.859 109.89Z" fill="#4A4A4A"/>
<path d="M644.701 105.222H656.368C657.115 105.222 657.675 104.615 657.675 103.915C657.675 103.168 657.068 102.608 656.368 102.608H644.701C643.955 102.608 643.395 103.215 643.395 103.915C643.395 104.662 644.001 105.222 644.701 105.222Z" fill="#4A4A4A"/>
<path d="M645.026 105.222C645.773 105.222 646.333 104.615 646.333 103.915C646.333 103.168 645.726 102.608 645.026 102.608C642.973 102.608 641.293 100.927 641.293 98.8732C641.293 96.8191 642.973 95.1386 645.026 95.1386C647.08 95.1386 648.76 96.8191 648.76 98.8732C648.76 99.6201 649.366 100.18 650.066 100.18C650.766 100.18 651.373 99.5734 651.373 98.8732C651.373 95.372 648.526 92.5244 645.026 92.5244C641.526 92.5244 638.68 95.372 638.68 98.8732C638.68 102.374 641.526 105.222 645.026 105.222Z" fill="#4A4A4A"/>
<path d="M79.5659 26.5622C79.0059 25.862 78.3992 25.2551 77.6992 24.6949L78.8659 23.5279C79.3792 23.0144 80.2192 23.0144 80.7326 23.5279C81.2459 24.0414 81.2459 24.8817 80.7326 25.3952L79.5659 26.5622Z" fill="#4A4A4A"/>
<path d="M69.3945 22.3142V20.6803C69.3945 19.9334 70.0012 19.3732 70.7012 19.3732C71.4479 19.3732 72.0079 19.98 72.0079 20.6803V22.3142C71.5879 22.2675 71.1212 22.2208 70.7012 22.2208C70.2345 22.2208 69.8145 22.2675 69.3945 22.3142Z" fill="#4A4A4A"/>
<path d="M83.5806 32.2575C84.3273 32.2575 84.8872 32.8644 84.8872 33.5646C84.8872 34.3115 84.2806 34.8717 83.5806 34.8717H81.9473C81.9939 34.4516 82.0406 33.9848 82.0406 33.5646C82.0406 33.0978 81.9939 32.6776 81.9473 32.2575H83.5806Z" fill="#4A4A4A"/>
<path d="M62.486 23.5279L63.6527 24.6949C62.9527 25.2551 62.346 25.862 61.786 26.5622L60.6194 25.3952C60.106 24.8817 60.106 24.0414 60.6194 23.5279C61.1327 23.0144 61.9727 23.0144 62.486 23.5279Z" fill="#4A4A4A"/>
<path d="M57.7735 32.2575H59.4068C59.3601 32.6776 59.3135 33.1445 59.3135 33.5646C59.3135 34.0314 59.3601 34.4516 59.4068 34.8717H57.7735C57.0268 34.8717 56.4668 34.2648 56.4668 33.5646C56.4668 32.8177 57.0735 32.2575 57.7735 32.2575Z" fill="#4A4A4A"/>
<path d="M61.786 40.567C62.346 41.2672 62.9527 41.8741 63.6527 42.4342L62.486 43.6013C62.206 43.8814 61.8794 43.9748 61.5527 43.9748C61.226 43.9748 60.8994 43.8347 60.6194 43.6013C60.106 43.0878 60.106 42.2475 60.6194 41.734L61.786 40.567Z" fill="#4A4A4A"/>
<path d="M79.5659 40.567L80.7326 41.734C81.2459 42.2475 81.2459 43.0878 80.7326 43.6013C80.4526 43.8814 80.1259 43.9748 79.7992 43.9748C79.4726 43.9748 79.1459 43.8347 78.8659 43.6013L77.6992 42.4342C78.3992 41.9207 79.0059 41.2672 79.5659 40.567Z" fill="#4A4A4A"/>
<path d="M72.0079 44.815V46.4489C72.0079 47.1958 71.4012 47.756 70.7012 47.756C69.9545 47.756 69.3945 47.1491 69.3945 46.4489V44.815C69.8145 44.8617 70.2812 44.9084 70.7012 44.9084C71.1212 44.9084 71.5879 44.8617 72.0079 44.815Z" fill="#4A4A4A"/>
<path d="M61.5527 33.5646C61.5527 38.6063 65.6594 42.7143 70.6994 42.7143C75.7394 42.7143 79.8461 38.6063 79.8461 33.5646C79.8461 28.5229 75.7394 24.4149 70.6994 24.4149C65.6594 24.4149 61.5527 28.5229 61.5527 33.5646ZM64.1194 33.5646C64.1194 29.9234 67.0594 26.9824 70.6994 26.9824C74.3394 26.9824 77.2794 29.9234 77.2794 33.5646C77.2794 37.2058 74.3394 40.1468 70.6994 40.1468C67.0594 40.1468 64.1194 37.2058 64.1194 33.5646Z" fill="#4A4A4A"/>
<path d="M443.708 148.87L448.748 143.828H448.655C446.928 143.828 445.481 142.848 444.781 141.261C444.128 139.674 444.455 137.946 445.621 136.779L450.988 131.411H450.941C449.541 131.411 448.281 130.57 447.721 129.263C447.161 127.956 447.441 126.509 448.421 125.529L455.515 118.433C456.961 116.986 459.248 116.986 460.695 118.433L467.741 125.482L467.788 125.529C468.768 126.556 469.048 127.956 468.488 129.263C467.928 130.57 466.668 131.411 465.268 131.411H465.221L470.588 136.779L470.635 136.826C471.801 138.04 472.175 139.767 471.475 141.307C470.821 142.895 469.328 143.875 467.601 143.875H467.508L472.501 148.87L472.548 148.917C473.855 150.27 474.228 152.184 473.528 153.958C472.781 155.732 471.148 156.853 469.235 156.853H462.888C462.141 156.853 461.581 156.246 461.581 155.546C461.581 154.799 462.188 154.238 462.888 154.238H469.235C470.215 154.238 470.868 153.585 471.101 152.978C471.428 152.231 471.288 151.391 470.681 150.831L470.635 150.784L463.401 143.548C463.028 143.175 462.935 142.615 463.121 142.101C463.308 141.588 463.821 141.307 464.335 141.307H467.601C468.535 141.307 468.955 140.561 469.048 140.327C469.141 140.094 469.375 139.347 468.721 138.693L469.655 137.76L468.675 138.647L461.115 131.084C460.741 130.711 460.648 130.15 460.835 129.637C461.021 129.123 461.535 128.843 462.048 128.843H465.268C465.781 128.843 466.015 128.423 466.061 128.33C466.108 128.19 466.248 127.77 465.875 127.443L458.828 120.394C458.408 119.974 457.755 119.974 457.381 120.394L450.288 127.489C449.961 127.816 450.055 128.236 450.101 128.376C450.148 128.516 450.381 128.89 450.895 128.89H454.115C454.628 128.89 455.141 129.217 455.328 129.684C455.515 130.197 455.421 130.757 455.048 131.131L447.488 138.693L447.441 138.74C446.788 139.393 447.021 140.14 447.115 140.374C447.208 140.607 447.581 141.354 448.561 141.354H451.828C452.341 141.354 452.855 141.681 453.041 142.148C453.228 142.661 453.135 143.221 452.761 143.595L445.528 150.831L445.481 150.877C444.921 151.484 444.735 152.278 445.061 153.025C445.295 153.632 445.948 154.285 446.928 154.285H457.568C457.755 154.285 457.895 154.332 458.035 154.378C458.781 154.378 459.341 154.985 459.341 155.686V164.088C459.341 164.835 458.735 165.395 458.035 165.395C457.288 165.395 456.728 164.789 456.728 164.088V156.899H446.928C445.015 156.899 443.381 155.779 442.635 154.005C442.028 152.138 442.401 150.224 443.708 148.87Z" fill="#4A4A4A"/>
<path d="M458.221 152.091C457.521 152.091 456.961 151.531 456.961 150.831C456.961 150.13 457.521 149.57 458.221 149.57C458.921 149.57 459.481 150.13 459.481 150.831C459.481 151.484 458.921 152.091 458.221 152.091Z" fill="#4A4A4A"/>
<path d="M486.127 143.128C485.427 143.128 484.867 142.568 484.867 141.868C484.867 141.167 485.427 140.607 486.127 140.607C486.827 140.607 487.387 141.167 487.387 141.868C487.434 142.568 486.827 143.128 486.127 143.128Z" fill="#4A4A4A"/>
<path d="M504.701 141.214C505.215 141.214 505.728 141.541 505.915 142.008C506.101 142.521 506.008 143.081 505.635 143.455L501.668 147.423C501.715 146.909 501.761 146.396 501.761 145.882V141.214H504.701Z" fill="#4A4A4A"/>
<path d="M514.922 128.75H518.142C518.655 128.75 518.888 128.33 518.935 128.236C518.981 128.096 519.121 127.676 518.748 127.349L511.702 120.3C511.282 119.88 510.628 119.88 510.255 120.3L503.161 127.396C502.835 127.723 502.928 128.143 502.975 128.283C503.022 128.423 503.255 128.797 503.768 128.797H506.988C507.502 128.797 508.015 129.123 508.202 129.59C508.388 130.104 508.295 130.664 507.922 131.037L501.761 137.199V133.465L503.815 131.411H503.768C503.022 131.411 502.322 131.177 501.715 130.757V125.062L508.342 118.433C509.788 116.986 512.075 116.986 513.522 118.433L520.568 125.482L520.615 125.529C521.595 126.556 521.875 127.956 521.315 129.263C520.755 130.57 519.495 131.411 518.095 131.411H518.048L523.415 136.779L523.461 136.826C524.628 138.04 525.001 139.767 524.301 141.307C523.648 142.895 522.155 143.875 520.428 143.875H520.335L525.328 148.87L525.375 148.917C526.682 150.27 527.055 152.184 526.355 153.958C525.608 155.732 523.975 156.853 522.061 156.853H515.715C514.968 156.853 514.408 156.246 514.408 155.546C514.408 154.799 515.015 154.238 515.715 154.238H522.061C523.041 154.238 523.695 153.585 523.928 152.978C524.255 152.231 524.115 151.391 523.508 150.831L523.461 150.784L516.228 143.548C515.855 143.175 515.761 142.615 515.948 142.101C516.135 141.588 516.648 141.307 517.161 141.307H520.428C521.361 141.307 521.782 140.561 521.875 140.327C521.968 140.094 522.201 139.347 521.548 138.693L522.481 137.76L521.501 138.647L513.942 131.084C513.568 130.711 513.475 130.15 513.661 129.637C513.941 129.077 514.408 128.75 514.922 128.75Z" fill="#4A4A4A"/>
<path d="M499.848 154.145H510.488C510.675 154.145 510.815 154.192 510.955 154.238C511.702 154.238 512.262 154.845 512.262 155.546V163.948C512.262 164.695 511.655 165.255 510.955 165.255C510.208 165.255 509.648 164.649 509.648 163.948V156.759H499.848C499.102 156.759 498.402 156.573 497.795 156.292C498.402 155.592 498.962 154.845 499.428 154.098C499.522 154.145 499.662 154.145 499.848 154.145Z" fill="#4A4A4A"/>
<path d="M472.408 145.929C472.408 145.882 472.408 145.882 472.408 145.929V143.548C472.782 143.081 473.108 142.568 473.342 142.008C474.228 139.86 473.855 137.526 472.408 135.799V119.507C472.408 111.944 478.568 105.782 486.128 105.782C493.688 105.782 499.848 111.944 499.848 119.507V145.882C499.848 151.391 496.535 156.386 491.448 158.533C490.795 158.813 490.002 158.487 489.722 157.833C489.442 157.179 489.768 156.386 490.422 156.106C494.528 154.332 497.235 150.317 497.235 145.882V119.507C497.235 113.391 492.242 108.396 486.128 108.396C480.015 108.396 475.022 113.391 475.022 119.507V145.882C475.022 151.578 479.315 156.246 484.822 156.899V147.143C484.822 146.396 485.428 145.836 486.128 145.836C486.875 145.836 487.435 146.442 487.435 147.143V163.948C487.435 164.695 486.828 165.255 486.128 165.255C485.382 165.255 484.822 164.649 484.822 163.948V159.56C481.042 159.187 477.728 157.319 475.442 154.519C476.422 152.091 475.862 149.43 474.042 147.563L472.408 145.929Z" fill="#4A4A4A"/>
<path d="M140.98 106.062C142.24 106.062 143.313 107.089 143.313 108.396C143.313 109.657 142.286 110.73 140.98 110.73C139.72 110.73 138.646 109.703 138.646 108.396C138.646 107.089 139.673 106.062 140.98 106.062Z" fill="#4A4A4A"/>
<path d="M134.259 106.062C135.519 106.062 136.592 107.089 136.592 108.396C136.592 109.657 135.566 110.73 134.259 110.73C132.999 110.73 131.926 109.703 131.926 108.396C131.926 107.089 132.952 106.062 134.259 106.062Z" fill="#4A4A4A"/>
<path d="M127.54 106.062C128.8 106.062 129.874 107.089 129.874 108.396C129.874 109.657 128.847 110.73 127.54 110.73C126.28 110.73 125.207 109.703 125.207 108.396C125.207 107.089 126.234 106.062 127.54 106.062Z" fill="#4A4A4A"/>
<path d="M120.82 110.684C119.56 110.684 118.486 109.657 118.486 108.35C118.486 107.089 119.513 106.016 120.82 106.016C122.08 106.016 123.153 107.043 123.153 108.35C123.106 109.657 122.08 110.684 120.82 110.684Z" fill="#4A4A4A"/>
<path d="M140.98 113.578C142.24 113.578 143.313 114.605 143.313 115.912C143.313 117.173 142.286 118.246 140.98 118.246C139.72 118.246 138.646 117.219 138.646 115.912C138.646 114.605 139.673 113.578 140.98 113.578Z" fill="#4A4A4A"/>
<path d="M134.259 113.578C135.519 113.578 136.592 114.605 136.592 115.912C136.592 117.173 135.566 118.246 134.259 118.246C132.999 118.246 131.926 117.219 131.926 115.912C131.926 114.605 132.952 113.578 134.259 113.578Z" fill="#4A4A4A"/>
<path d="M127.54 113.578C128.8 113.578 129.874 114.605 129.874 115.912C129.874 117.173 128.847 118.246 127.54 118.246C126.28 118.246 125.207 117.219 125.207 115.912C125.207 114.605 126.234 113.578 127.54 113.578Z" fill="#4A4A4A"/>
<path d="M120.82 113.578C122.08 113.578 123.153 114.605 123.153 115.912C123.153 117.173 122.126 118.246 120.82 118.246C119.56 118.246 118.486 117.219 118.486 115.912C118.486 114.605 119.513 113.578 120.82 113.578Z" fill="#4A4A4A"/>
<path d="M140.98 121.094C142.24 121.094 143.313 122.121 143.313 123.428C143.313 124.688 142.286 125.762 140.98 125.762C139.72 125.762 138.646 124.735 138.646 123.428C138.646 122.121 139.673 121.094 140.98 121.094Z" fill="#4A4A4A"/>
<path d="M134.259 121.094C135.519 121.094 136.592 122.121 136.592 123.428C136.592 124.688 135.566 125.762 134.259 125.762C132.999 125.762 131.926 124.735 131.926 123.428C131.926 122.121 132.952 121.094 134.259 121.094Z" fill="#4A4A4A"/>
<path d="M127.54 121.094C128.8 121.094 129.874 122.121 129.874 123.428C129.874 124.688 128.847 125.762 127.54 125.762C126.28 125.762 125.207 124.735 125.207 123.428C125.207 122.121 126.234 121.094 127.54 121.094Z" fill="#4A4A4A"/>
<path d="M120.82 121.094C122.08 121.094 123.153 122.121 123.153 123.428C123.153 124.688 122.126 125.762 120.82 125.762C119.56 125.762 118.486 124.735 118.486 123.428C118.486 122.121 119.513 121.094 120.82 121.094Z" fill="#4A4A4A"/>
<path d="M140.98 128.563C142.24 128.563 143.313 129.59 143.313 130.897C143.313 132.158 142.286 133.231 140.98 133.231C139.72 133.231 138.646 132.204 138.646 130.897C138.646 129.637 139.673 128.563 140.98 128.563Z" fill="#4A4A4A"/>
<path d="M134.259 128.563C135.519 128.563 136.592 129.59 136.592 130.897C136.592 132.158 135.566 133.231 134.259 133.231C132.999 133.231 131.926 132.204 131.926 130.897C131.926 129.637 132.952 128.563 134.259 128.563Z" fill="#4A4A4A"/>
<path d="M127.54 128.563C128.8 128.563 129.874 129.59 129.874 130.897C129.874 132.158 128.847 133.231 127.54 133.231C126.28 133.231 125.207 132.204 125.207 130.897C125.207 129.637 126.234 128.563 127.54 128.563Z" fill="#4A4A4A"/>
<path d="M120.82 128.563C122.08 128.563 123.153 129.59 123.153 130.897C123.153 132.158 122.126 133.231 120.82 133.231C119.56 133.231 118.486 132.204 118.486 130.897C118.486 129.637 119.513 128.563 120.82 128.563Z" fill="#4A4A4A"/>
<path d="M140.98 136.079C142.24 136.079 143.313 137.106 143.313 138.413C143.313 139.674 142.286 140.747 140.98 140.747C139.72 140.747 138.646 139.72 138.646 138.413C138.646 137.106 139.673 136.079 140.98 136.079Z" fill="#4A4A4A"/>
<path d="M134.259 136.079C135.519 136.079 136.592 137.106 136.592 138.413C136.592 139.674 135.566 140.747 134.259 140.747C132.999 140.747 131.926 139.72 131.926 138.413C131.926 137.106 132.952 136.079 134.259 136.079Z" fill="#4A4A4A"/>
<path d="M127.54 136.079C128.8 136.079 129.874 137.106 129.874 138.413C129.874 139.674 128.847 140.747 127.54 140.747C126.28 140.747 125.207 139.72 125.207 138.413C125.207 137.106 126.234 136.079 127.54 136.079Z" fill="#4A4A4A"/>
<path d="M120.82 136.079C122.08 136.079 123.153 137.106 123.153 138.413C123.153 139.674 122.126 140.747 120.82 140.747C119.56 140.747 118.486 139.72 118.486 138.413C118.486 137.106 119.513 136.079 120.82 136.079Z" fill="#4A4A4A"/>
<path d="M140.98 143.595C142.24 143.595 143.313 144.622 143.313 145.929C143.313 147.189 142.286 148.263 140.98 148.263C139.72 148.263 138.646 147.236 138.646 145.929C138.646 144.622 139.673 143.595 140.98 143.595Z" fill="#4A4A4A"/>
<path d="M134.259 143.595C135.519 143.595 136.592 144.622 136.592 145.929C136.592 147.189 135.566 148.263 134.259 148.263C132.999 148.263 131.926 147.236 131.926 145.929C131.926 144.622 132.952 143.595 134.259 143.595Z" fill="#4A4A4A"/>
<path d="M127.54 143.595C128.8 143.595 129.874 144.622 129.874 145.929C129.874 147.189 128.847 148.263 127.54 148.263C126.28 148.263 125.207 147.236 125.207 145.929C125.207 144.622 126.234 143.595 127.54 143.595Z" fill="#4A4A4A"/>
<path d="M120.82 143.595C122.08 143.595 123.153 144.622 123.153 145.929C123.153 147.189 122.126 148.263 120.82 148.263C119.56 148.263 118.486 147.236 118.486 145.929C118.486 144.622 119.513 143.595 120.82 143.595Z" fill="#4A4A4A"/>
<path d="M140.98 151.111C142.24 151.111 143.313 152.138 143.313 153.445C143.313 154.705 142.286 155.779 140.98 155.779C139.72 155.779 138.646 154.752 138.646 153.445C138.646 152.138 139.673 151.111 140.98 151.111Z" fill="#4A4A4A"/>
<path d="M134.259 151.111C135.519 151.111 136.592 152.138 136.592 153.445C136.592 154.705 135.566 155.779 134.259 155.779C132.999 155.779 131.926 154.752 131.926 153.445C131.926 152.138 132.952 151.111 134.259 151.111Z" fill="#4A4A4A"/>
<path d="M127.54 151.111C128.8 151.111 129.874 152.138 129.874 153.445C129.874 154.705 128.847 155.779 127.54 155.779C126.28 155.779 125.207 154.752 125.207 153.445C125.207 152.138 126.234 151.111 127.54 151.111Z" fill="#4A4A4A"/>
<path d="M120.82 151.111C122.08 151.111 123.153 152.138 123.153 153.445C123.153 154.705 122.126 155.779 120.82 155.779C119.56 155.779 118.486 154.752 118.486 153.445C118.486 152.138 119.513 151.111 120.82 151.111Z" fill="#4A4A4A"/>
<path d="M155.492 157.086C156.192 157.086 156.752 156.526 156.752 155.826V132.998H159.692V155.826C159.692 156.526 160.252 157.086 160.952 157.086C161.652 157.086 162.212 156.526 162.212 155.826V131.738C162.212 131.037 161.652 130.477 160.952 130.477H155.492C154.792 130.477 154.232 131.037 154.232 131.738V155.826C154.232 156.479 154.792 157.086 155.492 157.086Z" fill="#4A4A4A"/>
<path d="M167.719 145.976C168.419 145.976 168.979 145.415 168.979 144.715V121.888H171.919V144.715C171.919 145.415 172.479 145.976 173.179 145.976C173.879 145.976 174.439 145.415 174.439 144.715V120.627C174.439 119.927 173.879 119.367 173.179 119.367H167.719C167.019 119.367 166.459 119.927 166.459 120.627V144.715C166.459 145.415 167.066 145.976 167.719 145.976Z" fill="#4A4A4A"/>
<path d="M179.992 157.086C180.692 157.086 181.252 156.526 181.252 155.826V132.998H184.192V155.826C184.192 156.526 184.752 157.086 185.452 157.086C186.152 157.086 186.712 156.526 186.712 155.826V131.738C186.712 131.037 186.152 130.477 185.452 130.477H179.992C179.292 130.477 178.732 131.037 178.732 131.738V155.826C178.732 156.479 179.292 157.086 179.992 157.086Z" fill="#4A4A4A"/>
<path d="M155.492 126.322C156.192 126.322 156.752 125.762 156.752 125.062V102.234H159.692V125.062C159.692 125.762 160.252 126.322 160.952 126.322C161.652 126.322 162.212 125.762 162.212 125.062V100.974C162.212 100.274 161.652 99.7135 160.952 99.7135H155.492C154.792 99.7135 154.232 100.274 154.232 100.974V125.062C154.232 125.762 154.792 126.322 155.492 126.322Z" fill="#4A4A4A"/>
<path d="M167.719 115.259C168.419 115.259 168.979 114.698 168.979 113.998V91.1706H171.919V113.998C171.919 114.698 172.479 115.259 173.179 115.259C173.879 115.259 174.439 114.698 174.439 113.998V89.9102C174.439 89.2099 173.879 88.6497 173.179 88.6497H167.719C167.019 88.6497 166.459 89.2099 166.459 89.9102V113.998C166.459 114.698 167.066 115.259 167.719 115.259Z" fill="#4A4A4A"/>
<path d="M179.992 126.322C180.692 126.322 181.252 125.762 181.252 125.062V102.234H184.192V125.062C184.192 125.762 184.752 126.322 185.452 126.322C186.152 126.322 186.712 125.762 186.712 125.062V100.974C186.712 100.274 186.152 99.7135 185.452 99.7135H179.992C179.292 99.7135 178.732 100.274 178.732 100.974V125.062C178.732 125.762 179.292 126.322 179.992 126.322Z" fill="#4A4A4A"/>
<path d="M155.492 95.6054C156.192 95.6054 156.752 95.0452 156.752 94.345V71.5173H159.692V94.345C159.692 95.0452 160.252 95.6054 160.952 95.6054C161.652 95.6054 162.212 95.0452 162.212 94.345V70.2569C162.212 69.5567 161.652 68.9965 160.952 68.9965H155.492C154.792 68.9965 154.232 69.5567 154.232 70.2569V94.345C154.232 95.0452 154.792 95.6054 155.492 95.6054Z" fill="#4A4A4A"/>
<path d="M167.719 84.5417C168.419 84.5417 168.979 83.9815 168.979 83.2813V60.7804H171.919V83.2813C171.919 83.9815 172.479 84.5417 173.179 84.5417C173.879 84.5417 174.439 83.9815 174.439 83.2813V59.52C174.439 58.8197 173.879 58.2596 173.179 58.2596H167.719C167.019 58.2596 166.459 58.8197 166.459 59.52V83.2813C166.459 83.9815 167.066 84.5417 167.719 84.5417Z" fill="#4A4A4A"/>
<path d="M179.992 95.6054C180.692 95.6054 181.252 95.0452 181.252 94.345V71.5173H184.192V94.345C184.192 95.0452 184.752 95.6054 185.452 95.6054C186.152 95.6054 186.712 95.0452 186.712 94.345V70.2569C186.712 69.5567 186.152 68.9965 185.452 68.9965H179.992C179.292 68.9965 178.732 69.5567 178.732 70.2569V94.345C178.732 95.0452 179.292 95.6054 179.992 95.6054Z" fill="#4A4A4A"/>
<path d="M143.267 96.4924H119.887C119.187 96.4924 118.58 95.9322 118.58 95.1853V88.9298C118.58 88.2296 119.14 87.6227 119.887 87.6227H143.267C143.967 87.6227 144.573 88.1829 144.573 88.9298V95.1853C144.527 95.8855 143.967 96.4924 143.267 96.4924ZM121.1 93.9715H142.053V90.1903H121.1V93.9715Z" fill="#4A4A4A"/>
<path d="M195.903 61.3406H147.149C146.759 61.3406 146.369 61.1539 146.125 60.8738C145.881 60.5937 145.784 60.1735 145.881 59.8001L148.124 50.3703C148.27 49.8101 148.806 49.3899 149.391 49.3899H193.709C194.343 49.3899 194.879 49.8101 194.976 50.3703L197.219 59.8001C197.317 60.1735 197.219 60.547 196.975 60.8738C196.683 61.1539 196.342 61.3406 195.903 61.3406ZM148.806 58.8197H194.294L192.685 51.9108H150.464L148.806 58.8197Z" fill="#4A4A4A"/>
<path d="M452.153 96.6324H465.22C470.167 96.6324 474.18 92.6177 474.18 87.6694C474.18 82.7211 470.167 78.7064 465.22 78.7064H423.92C423.22 78.7064 422.66 79.2666 422.66 79.9668C422.66 80.6671 423.22 81.2273 423.92 81.2273H465.267C468.813 81.2273 471.707 84.1216 471.707 87.6694C471.707 91.2173 468.813 94.1116 465.267 94.1116H452.2C451.5 94.1116 450.94 94.6718 450.94 95.372C450.893 96.0722 451.453 96.6324 452.153 96.6324Z" fill="#4A4A4A"/>
<path d="M541.24 87.6694C541.24 88.5564 541.94 89.2566 542.827 89.2566C543.714 89.2566 544.414 88.5564 544.414 87.6694C544.414 86.7825 543.714 86.0822 542.827 86.0822C541.94 86.0822 541.24 86.7825 541.24 87.6694Z" fill="#4A4A4A"/>
<path d="M535.406 87.6694C535.406 88.5564 536.106 89.2566 536.993 89.2566C537.88 89.2566 538.58 88.5564 538.58 87.6694C538.58 86.7825 537.88 86.0822 536.993 86.0822C536.106 86.0822 535.406 86.7825 535.406 87.6694Z" fill="#4A4A4A"/>
<path d="M529.572 87.6694C529.572 88.5564 530.272 89.2566 531.159 89.2566C532.045 89.2566 532.745 88.5564 532.745 87.6694C532.745 86.7825 532.045 86.0822 531.159 86.0822C530.272 86.0822 529.572 86.7825 529.572 87.6694Z" fill="#4A4A4A"/>
<path d="M523.74 87.6694C523.74 88.5564 524.44 89.2566 525.327 89.2566C526.213 89.2566 526.913 88.5564 526.913 87.6694C526.913 86.7825 526.213 86.0822 525.327 86.0822C524.44 86.0822 523.74 86.7825 523.74 87.6694Z" fill="#4A4A4A"/>
<path d="M517.906 87.6694C517.906 88.5564 518.606 89.2566 519.493 89.2566C520.38 89.2566 521.08 88.5564 521.08 87.6694C521.08 86.7825 520.38 86.0822 519.493 86.0822C518.606 86.0822 517.906 86.7825 517.906 87.6694Z" fill="#4A4A4A"/>
<path d="M512.027 87.6694C512.027 88.5564 512.727 89.2566 513.614 89.2566C514.501 89.2566 515.201 88.5564 515.201 87.6694C515.201 86.7825 514.501 86.0822 513.614 86.0822C512.727 86.0822 512.027 86.7825 512.027 87.6694Z" fill="#4A4A4A"/>
<path d="M506.193 87.6694C506.193 88.5564 506.893 89.2566 507.78 89.2566C508.667 89.2566 509.367 88.5564 509.367 87.6694C509.367 86.7825 508.667 86.0822 507.78 86.0822C506.893 86.0822 506.193 86.7825 506.193 87.6694Z" fill="#4A4A4A"/>
<path d="M500.361 87.6694C500.361 88.5564 501.061 89.2566 501.948 89.2566C502.835 89.2566 503.535 88.5564 503.535 87.6694C503.535 86.7825 502.835 86.0822 501.948 86.0822C501.061 86.0822 500.361 86.7825 500.361 87.6694Z" fill="#4A4A4A"/>
<path d="M494.527 87.6694C494.527 88.5564 495.227 89.2566 496.114 89.2566C497.001 89.2566 497.701 88.5564 497.701 87.6694C497.701 86.7825 497.001 86.0822 496.114 86.0822C495.227 86.0822 494.527 86.7825 494.527 87.6694Z" fill="#4A4A4A"/>
<path d="M126.746 60.7337C126.746 61.6207 127.446 62.3209 128.333 62.3209C129.219 62.3209 129.919 61.6207 129.919 60.7337C129.919 59.8468 129.219 59.1465 128.333 59.1465C127.446 59.1465 126.746 59.8934 126.746 60.7337Z" fill="#4A4A4A"/>
<path d="M120.914 60.7337C120.914 61.6207 121.614 62.3209 122.501 62.3209C123.387 62.3209 124.087 61.6207 124.087 60.7337C124.087 59.8468 123.387 59.1465 122.501 59.1465C121.614 59.1465 120.914 59.8934 120.914 60.7337Z" fill="#4A4A4A"/>
<path d="M115.08 60.7337C115.08 61.6207 115.78 62.3209 116.667 62.3209C117.553 62.3209 118.253 61.6207 118.253 60.7337C118.253 59.8468 117.553 59.1465 116.667 59.1465C115.78 59.1932 115.08 59.8934 115.08 60.7337Z" fill="#4A4A4A"/>
<path d="M109.199 60.7337C109.199 61.6207 109.899 62.3209 110.786 62.3209C111.673 62.3209 112.373 61.6207 112.373 60.7337C112.373 59.8468 111.673 59.1465 110.786 59.1465C109.946 59.1932 109.199 59.8934 109.199 60.7337Z" fill="#4A4A4A"/>
<path d="M103.367 60.7337C103.367 61.6207 104.067 62.3209 104.954 62.3209C105.841 62.3209 106.541 61.6207 106.541 60.7337C106.541 59.8468 105.841 59.1465 104.954 59.1465C104.067 59.1932 103.367 59.8934 103.367 60.7337Z" fill="#4A4A4A"/>
<path d="M97.5332 60.7337C97.5332 61.6207 98.2332 62.3209 99.1199 62.3209C100.007 62.3209 100.707 61.6207 100.707 60.7337C100.707 59.8468 100.007 59.1465 99.1199 59.1465C98.2332 59.1465 97.5332 59.8934 97.5332 60.7337Z" fill="#4A4A4A"/>
<path d="M91.6992 60.7337C91.6992 61.6207 92.3992 62.3209 93.2859 62.3209C94.1726 62.3209 94.8726 61.6207 94.8726 60.7337C94.8726 59.8468 94.1726 59.1465 93.2859 59.1465C92.3992 59.1932 91.6992 59.8934 91.6992 60.7337Z" fill="#4A4A4A"/>
<path d="M85.8672 60.7337C85.8672 61.6207 86.5672 62.3209 87.4538 62.3209C88.3405 62.3209 89.0405 61.6207 89.0405 60.7337C89.0405 59.8468 88.3405 59.1465 87.4538 59.1465C86.5672 59.1932 85.8672 59.8934 85.8672 60.7337Z" fill="#4A4A4A"/>
<path d="M80.0332 60.7337C80.0332 61.6207 80.7332 62.3209 81.6199 62.3209C82.5065 62.3209 83.2065 61.6207 83.2065 60.7337C83.2065 59.8468 82.5065 59.1465 81.6199 59.1465C80.7332 59.1932 80.0332 59.8934 80.0332 60.7337Z" fill="#4A4A4A"/>
<path d="M455.186 55.3652C455.186 56.2522 455.886 56.9525 456.772 56.9525C457.659 56.9525 458.359 56.2522 458.359 55.3652C458.359 54.4783 457.659 53.778 456.772 53.778C455.886 53.778 455.186 54.4783 455.186 55.3652Z" fill="#4A4A4A"/>
<path d="M449.354 55.3652C449.354 56.2522 450.054 56.9525 450.94 56.9525C451.827 56.9525 452.527 56.2522 452.527 55.3652C452.527 54.4783 451.827 53.778 450.94 53.778C450.054 53.778 449.354 54.4783 449.354 55.3652Z" fill="#4A4A4A"/>
<path d="M443.52 55.3652C443.52 56.2522 444.22 56.9525 445.106 56.9525C445.993 56.9525 446.693 56.2522 446.693 55.3652C446.693 54.4783 445.993 53.778 445.106 53.778C444.22 53.778 443.52 54.4783 443.52 55.3652Z" fill="#4A4A4A"/>
<path d="M437.686 55.3652C437.686 56.2522 438.386 56.9525 439.272 56.9525C440.159 56.9525 440.859 56.2522 440.859 55.3652C440.859 54.4783 440.159 53.778 439.272 53.778C438.386 53.778 437.686 54.4783 437.686 55.3652Z" fill="#4A4A4A"/>
<path d="M431.854 55.3652C431.854 56.2522 432.554 56.9525 433.44 56.9525C434.327 56.9525 435.027 56.2522 435.027 55.3652C435.027 54.4783 434.327 53.778 433.44 53.778C432.554 53.778 431.854 54.4783 431.854 55.3652Z" fill="#4A4A4A"/>
<path d="M426.02 55.3652C426.02 56.2522 426.72 56.9525 427.606 56.9525C428.493 56.9525 429.193 56.2522 429.193 55.3652C429.193 54.4783 428.493 53.778 427.606 53.778C426.72 53.778 426.02 54.4783 426.02 55.3652Z" fill="#4A4A4A"/>
<path d="M420.186 55.3652C420.186 56.2522 420.886 56.9525 421.772 56.9525C422.659 56.9525 423.359 56.2522 423.359 55.3652C423.359 54.4783 422.659 53.778 421.772 53.778C420.886 53.778 420.186 54.4783 420.186 55.3652Z" fill="#4A4A4A"/>
<path d="M414.307 55.3652C414.307 56.2522 415.007 56.9525 415.893 56.9525C416.78 56.9525 417.48 56.2522 417.48 55.3652C417.48 54.4783 416.78 53.778 415.893 53.778C415.007 53.778 414.307 54.4783 414.307 55.3652Z" fill="#4A4A4A"/>
<path d="M408.473 55.3652C408.473 56.2522 409.173 56.9525 410.059 56.9525C410.946 56.9525 411.646 56.2522 411.646 55.3652C411.646 54.4783 410.946 53.778 410.059 53.778C409.173 53.778 408.473 54.4783 408.473 55.3652Z" fill="#4A4A4A"/>
<path d="M111.44 76.6991H134.213C134.913 76.6991 135.473 76.1389 135.473 75.4387C135.473 74.7384 134.913 74.1782 134.213 74.1782H111.44C110.74 74.1782 110.18 74.7384 110.18 75.4387C110.18 76.1389 110.74 76.6991 111.44 76.6991Z" fill="#4A4A4A"/>
<path d="M407.959 35.7587H430.733C431.433 35.7587 431.993 35.1985 431.993 34.4982C431.993 33.798 431.433 33.2378 430.733 33.2378H407.959C407.259 33.2378 406.699 33.798 406.699 34.4982C406.699 35.1985 407.259 35.7587 407.959 35.7587Z" fill="#4A4A4A"/>
<path d="M35.9338 95.6054H65.0072C65.7072 95.6054 66.2672 95.0452 66.2672 94.345C66.2672 93.6447 65.7072 93.0845 65.0072 93.0845H35.9338C35.2338 93.0845 34.6738 93.6447 34.6738 94.345C34.6738 95.0452 35.2338 95.6054 35.9338 95.6054Z" fill="#4A4A4A"/>
<path d="M486.313 58.1195H515.386C516.086 58.1195 516.646 57.5593 516.646 56.8591C516.646 56.1588 516.086 55.5986 515.386 55.5986H486.313C485.613 55.5986 485.053 56.1588 485.053 56.8591C485.053 57.5593 485.613 58.1195 486.313 58.1195Z" fill="#4A4A4A"/>
<path d="M105.793 35.712H135.987C136.687 35.712 137.247 35.1518 137.247 34.4516C137.247 33.7513 136.687 33.1911 135.987 33.1911H105.793C105.093 33.1911 104.533 33.7513 104.533 34.4516C104.533 35.1518 105.14 35.712 105.793 35.712Z" fill="#4A4A4A"/>
<path d="M317.754 38.5129H347.947C348.647 38.5129 349.207 37.9527 349.207 37.2525C349.207 36.5523 348.647 35.9921 347.947 35.9921H317.754C317.054 35.9921 316.494 36.5523 316.494 37.2525C316.494 37.9527 317.054 38.5129 317.754 38.5129Z" fill="#4A4A4A"/>
<path d="M23.9866 41.8274H43.1199C43.8199 41.8274 44.3799 41.2672 44.3799 40.5669C44.3799 39.8667 43.8199 39.3065 43.1199 39.3065H23.9866C23.2866 39.3065 22.7266 39.8667 22.7266 40.5669C22.7266 41.2672 23.2866 41.8274 23.9866 41.8274Z" fill="#4A4A4A"/>
<path d="M191.614 66.2422H149.24C148.54 66.2422 147.934 65.682 147.934 64.9351V60.4536C147.934 59.7534 148.494 59.1465 149.24 59.1465H191.614C192.314 59.1465 192.92 59.7067 192.92 60.4536V64.9351C192.92 65.682 192.314 66.2422 191.614 66.2422ZM150.5 63.7214H190.4V61.714H150.5V63.7214Z" fill="#4A4A4A"/>
<path d="M148.727 102.468H110.834C110.134 102.468 109.527 101.908 109.527 101.161V95.2319C109.527 94.5317 110.087 93.9248 110.834 93.9248H148.727C149.427 93.9248 150.034 94.485 150.034 95.2319V101.207C149.987 101.908 149.427 102.468 148.727 102.468ZM112.047 99.9469H147.467V96.4457H112.047V99.9469Z" fill="#4A4A4A"/>
<path d="M534.289 159.373H564.996C565.742 159.373 566.302 158.767 566.302 158.066C566.302 157.319 565.696 156.759 564.996 156.759H534.289C533.542 156.759 532.982 157.366 532.982 158.066C532.982 158.813 533.542 159.373 534.289 159.373Z" fill="#4A4A4A"/>
<path d="M537.041 154.332H562.194C562.941 154.332 563.501 153.725 563.501 153.025C563.501 152.278 562.894 151.718 562.194 151.718H537.041C536.294 151.718 535.734 152.324 535.734 153.025C535.734 153.725 536.341 154.332 537.041 154.332Z" fill="#4A4A4A"/>
<path d="M537.041 149.523H562.194C562.941 149.523 563.501 148.917 563.501 148.216C563.501 147.516 562.894 146.909 562.194 146.909H537.041C536.294 146.909 535.734 147.516 535.734 148.216C535.734 148.917 536.341 149.523 537.041 149.523Z" fill="#4A4A4A"/>
<path d="M558.93 165.349H561.683C562.43 165.349 562.99 164.742 562.99 164.042C562.99 163.295 562.383 162.735 561.683 162.735H560.236V158.907C560.236 158.16 559.63 157.6 558.93 157.6C558.183 157.6 557.623 158.206 557.623 158.907V164.042C557.623 164.742 558.183 165.349 558.93 165.349Z" fill="#4A4A4A"/>
<path d="M536.856 165.349H539.096C539.843 165.349 540.403 164.742 540.403 164.042V158.907C540.403 158.16 539.796 157.6 539.096 157.6C538.349 157.6 537.789 158.206 537.789 158.907V162.735H536.856C536.109 162.735 535.549 163.341 535.549 164.042C535.503 164.742 536.109 165.349 536.856 165.349Z" fill="#4A4A4A"/>
<path d="M578.063 165.115H574.143C573.536 165.115 572.976 164.695 572.836 164.042L571.623 158.02C571.53 157.646 571.623 157.226 571.903 156.899C572.136 156.573 572.51 156.432 572.93 156.432H579.183C579.556 156.432 579.93 156.619 580.21 156.899C580.443 157.179 580.583 157.6 580.49 157.973L579.37 163.995C579.276 164.649 578.716 165.115 578.063 165.115ZM575.216 162.501H576.99L577.596 159.14H574.516L575.216 162.501Z" fill="#4A4A4A"/>
<path d="M564.996 148.17C564.996 148.87 565.556 149.43 566.256 149.43C566.956 149.43 567.516 148.87 567.516 148.17C567.516 147.469 566.956 146.909 566.256 146.909C565.556 146.909 564.996 147.469 564.996 148.17Z" fill="#4A4A4A"/>
<path d="M531.629 152.838C531.629 153.538 532.189 154.098 532.889 154.098C533.589 154.098 534.149 153.538 534.149 152.838C534.149 152.138 533.589 151.578 532.889 151.578C532.189 151.578 531.629 152.138 531.629 152.838Z" fill="#4A4A4A"/>
<path d="M389.532 163.948H335.912C335.212 163.948 334.605 163.388 334.605 162.641V142.941C334.605 142.241 335.165 141.634 335.912 141.634H389.532C390.232 141.634 390.839 142.194 390.839 142.941V162.641C390.839 163.341 390.232 163.948 389.532 163.948ZM337.172 161.427H388.319V144.202H337.172V161.427Z" fill="#4A4A4A"/>
<path d="M378.238 163.995H362.744C362.044 163.995 361.438 163.435 361.438 162.688V152.931C361.438 152.231 361.997 151.624 362.744 151.624H378.238C378.938 151.624 379.544 152.184 379.544 152.931V162.688C379.544 163.388 378.938 163.995 378.238 163.995ZM364.004 161.474H377.024V154.145H364.004V161.474Z" fill="#4A4A4A"/>
<path d="M362.743 163.995H347.25C346.55 163.995 345.943 163.435 345.943 162.688V152.931C345.943 152.231 346.503 151.624 347.25 151.624H362.743C363.443 151.624 364.05 152.184 364.05 152.931V162.688C364.003 163.388 363.443 163.995 362.743 163.995ZM348.51 161.474H361.53V154.145H348.51V161.474Z" fill="#4A4A4A"/>
<path d="M656.648 158.206C656.648 159 656.041 159.607 655.248 159.607C654.454 159.607 653.848 159 653.848 158.206C653.848 157.413 654.454 156.806 655.248 156.806C655.994 156.806 656.648 157.459 656.648 158.206Z" fill="#4A4A4A"/>
<path d="M646.988 161.988C646.288 161.988 645.681 161.428 645.681 160.681V155.966C645.681 154.985 645.308 154.005 644.561 153.305L643.535 152.278C642.275 151.017 642.275 149.01 643.535 147.75L644.515 146.769C645.775 145.509 647.782 145.509 649.042 146.769L650.021 147.75C650.721 148.45 651.655 148.87 652.681 148.87H653.801C654.501 148.87 655.108 149.43 655.108 150.177C655.108 150.924 654.548 151.484 653.801 151.484H652.681C651.001 151.484 649.415 150.831 648.201 149.617L647.222 148.637C647.082 148.496 646.895 148.45 646.801 148.45C646.708 148.45 646.521 148.496 646.381 148.637L645.402 149.617C645.168 149.85 645.168 150.27 645.402 150.504L646.428 151.531C647.641 152.745 648.295 154.332 648.295 156.012V160.727C648.295 161.428 647.688 161.988 646.988 161.988Z" fill="#4A4A4A"/>
<path d="M651.233 146.022C652.599 146.022 653.707 144.915 653.707 143.548C653.707 142.182 652.599 141.074 651.233 141.074C649.867 141.074 648.76 142.182 648.76 143.548C648.76 144.915 649.867 146.022 651.233 146.022Z" fill="#4A4A4A"/>
<path d="M638.401 164.228C635.088 164.228 632.381 161.521 632.381 158.206C632.381 154.892 635.088 152.184 638.401 152.184C641.714 152.184 644.421 154.892 644.421 158.206C644.421 161.521 641.667 164.228 638.401 164.228ZM638.401 154.799C636.488 154.799 634.948 156.339 634.948 158.253C634.948 160.167 636.488 161.708 638.401 161.708C640.314 161.708 641.854 160.167 641.854 158.253C641.854 156.339 640.267 154.799 638.401 154.799Z" fill="#4A4A4A"/>
<path d="M655.34 164.228C652.027 164.228 649.32 161.521 649.32 158.206C649.32 154.892 652.027 152.184 655.34 152.184C658.654 152.184 661.36 154.892 661.36 158.206C661.36 161.521 658.654 164.228 655.34 164.228ZM655.34 154.799C653.427 154.799 651.887 156.339 651.887 158.253C651.887 160.167 653.427 161.708 655.34 161.708C657.254 161.708 658.794 160.167 658.794 158.253C658.794 156.339 657.254 154.799 655.34 154.799Z" fill="#4A4A4A"/>
<path d="M412.441 67.6894H290.827C290.267 67.6894 289.707 67.3626 289.474 66.8491C289.241 66.3356 289.287 65.7287 289.614 65.2619L297.174 55.4586C297.454 55.0852 297.921 54.8517 298.387 54.8517H406.514C407.027 54.8517 407.541 55.1318 407.821 55.5987L413.747 65.4019C414.027 65.8688 414.027 66.429 413.747 66.9425C413.514 67.4093 413.001 67.6894 412.441 67.6894ZM293.907 64.655H409.781L405.674 57.8394H299.134L293.907 64.655Z" fill="#4A4A4A"/>
<path d="M614.787 66.3356C611.614 64.1882 608.394 63.8147 608.3 63.8147C605.64 62.0408 603.027 61.8541 602.28 61.8074H602.234H602.187H602.14H602.094C601.394 61.8541 598.78 62.0875 596.074 63.8147C595.934 63.8147 592.714 64.1882 589.587 66.3356C586.647 68.3429 583.194 72.3109 583.38 79.7801C583.567 85.8021 587.674 91.6841 595.234 96.8192C595.467 96.9592 595.7 97.0526 595.934 97.0526C596.074 97.0526 596.214 97.0526 596.354 97.0059C598.314 96.3523 600.367 95.9789 602.42 96.0256C604.334 96.0256 606.247 96.399 608.067 97.0059C608.394 97.1459 608.814 97.0993 609.094 96.9125C610.354 96.2123 613.667 94.1116 617.074 89.8168C619.594 86.6424 620.947 83.2813 621.04 79.8268C621.18 72.3109 617.727 68.3429 614.787 66.3356ZM603.494 93.458V64.5617C606.014 65.1219 610.96 67.2226 611.52 75.1586C612.08 83.328 606.527 90.7038 604.1 93.5047C603.867 93.5047 603.68 93.458 603.494 93.458ZM600.227 93.5047C597.8 90.7038 592.247 83.328 592.807 75.1586C593.367 67.0825 598.5 65.0285 600.927 64.515V93.458C600.694 93.458 600.46 93.458 600.227 93.5047ZM596.074 94.345C591.407 91.0772 586.087 86.0355 585.9 79.7334C585.667 72.5443 589.354 69.1832 592.387 67.6427C591.314 69.4166 590.474 71.8441 590.24 74.9718C589.68 83.0946 594.394 90.3303 597.287 94.0182C596.867 94.1116 596.494 94.2049 596.074 94.345ZM618.427 79.7334C618.334 82.581 617.214 85.4287 615.02 88.1829C612.267 91.6374 609.654 93.5514 608.3 94.345C607.88 94.2049 607.46 94.1116 607.04 94.0182C609.934 90.377 614.647 83.0946 614.087 74.9718C613.854 71.7974 613.014 69.4166 611.94 67.6427C612.407 67.8761 612.874 68.1562 613.34 68.483C616.84 70.8638 618.567 74.645 618.427 79.7334Z" fill="#4A4A4A"/>
<path d="M605.92 98.173C604.753 97.7528 603.54 97.5194 602.327 97.5194C601.02 97.5194 599.667 97.7061 598.453 98.173C597.94 98.3597 597.613 98.8265 597.613 99.3867V103.401C597.613 105.549 599.34 107.276 601.487 107.276H602.887C605.033 107.276 606.76 105.549 606.76 103.401V99.3867C606.76 98.8732 606.433 98.3597 605.92 98.173ZM604.193 103.401C604.193 104.102 603.587 104.708 602.887 104.708H601.487C600.787 104.708 600.18 104.102 600.18 103.401V100.367C600.88 100.18 601.58 100.087 602.327 100.134C602.98 100.134 603.633 100.227 604.24 100.367V103.401H604.193Z" fill="#4A4A4A"/>
<path d="M488.04 167.263H484.354H27.0669C26.2735 167.263 25.5269 166.983 24.9202 166.376C24.3135 165.769 23.9869 164.975 23.9869 164.135C23.9869 163.762 23.8469 163.435 23.6135 163.201C23.3802 162.968 23.0535 162.828 22.6802 162.828H22.4935C22.1669 162.828 21.7935 162.968 21.5602 163.201C21.3269 163.435 21.1869 163.762 21.1869 164.135C21.1869 164.975 20.8602 165.769 20.2535 166.376C19.6469 166.936 18.9002 167.263 18.1069 167.263C18.1069 167.263 18.1069 167.263 18.0602 167.263C18.0135 167.263 17.9202 167.263 17.8735 167.263C17.7802 167.263 17.6869 167.263 17.5935 167.263C16.8002 167.263 16.0535 166.983 15.4469 166.376C14.8402 165.769 14.5135 164.975 14.5135 164.135C14.5135 163.762 14.3735 163.435 14.1402 163.201C13.9069 162.968 13.5802 162.828 13.2069 162.828H13.0202C12.6935 162.828 12.3202 162.968 12.0869 163.201C11.8535 163.435 11.7135 163.762 11.7135 164.135C11.7135 164.975 11.3869 165.769 10.7802 166.376C10.1735 166.936 9.42688 167.263 8.63354 167.263C8.63354 167.263 8.63354 167.263 8.58687 167.263C8.54021 167.263 8.44687 167.263 8.40021 167.263C8.30688 167.263 8.21354 167.263 8.12021 167.263C7.32687 167.263 6.58021 166.983 5.97354 166.376C5.36688 165.769 5.04021 164.975 5.04021 164.135C5.04021 163.762 4.90021 163.435 4.66687 163.201C4.43354 162.968 4.10687 162.828 3.73354 162.828H3.45354C3.12688 162.828 2.75354 162.968 2.52021 163.201C2.28688 163.435 2.14687 163.762 2.14687 164.135C2.14687 164.975 1.82021 165.769 1.21354 166.376C0.886875 166.703 0.466875 166.936 0.046875 167.123V169.83C1.16688 169.644 2.24021 169.083 3.08021 168.29C3.26688 168.103 3.45354 167.916 3.59354 167.73C3.73354 167.916 3.92021 168.103 4.10687 168.29C5.18021 169.363 6.67354 169.924 8.16687 169.924C8.21354 169.924 8.30687 169.924 8.35354 169.924C8.40021 169.924 8.49354 169.924 8.54021 169.924C8.58687 169.924 8.63354 169.924 8.63354 169.924C10.0802 169.924 11.5269 169.317 12.5535 168.29C12.7402 168.103 12.9269 167.916 13.0669 167.73C13.2069 167.916 13.3935 168.103 13.5802 168.29C14.6535 169.363 16.1469 169.924 17.6402 169.924C17.6869 169.924 17.7802 169.924 17.8269 169.924C17.8735 169.924 17.9669 169.924 18.0135 169.924C18.0602 169.924 18.1069 169.924 18.1069 169.924C19.5535 169.924 21.0002 169.317 22.0269 168.29C22.2135 168.103 22.4002 167.916 22.5402 167.73C22.6802 167.916 22.8669 168.103 23.0535 168.29C23.8002 169.037 24.7802 169.55 25.7602 169.784C25.9469 169.877 26.1335 169.924 26.3202 169.924H487.994H700V167.309H488.04V167.263Z" fill="#4A4A4A"/>
<path d="M586.412 130.384C586.272 130.384 586.086 130.337 585.946 130.29C583.379 129.263 580.859 128.843 578.479 129.123C577.779 129.217 577.126 128.703 577.079 128.003C576.986 127.303 577.499 126.649 578.199 126.602C580.999 126.276 583.939 126.743 586.926 127.956C587.579 128.236 587.906 128.983 587.626 129.637C587.439 130.104 586.926 130.384 586.412 130.384ZM610.866 130.29C613.432 129.263 615.952 128.843 618.332 129.123C619.032 129.217 619.686 128.703 619.732 128.003C619.826 127.303 619.312 126.649 618.612 126.602C615.812 126.276 612.872 126.743 609.886 127.956C609.232 128.236 608.906 128.983 609.186 129.637C609.372 130.15 609.886 130.43 610.399 130.43C610.539 130.384 610.679 130.384 610.866 130.29ZM576.939 122.028C576.146 122.028 575.539 122.634 575.539 123.428C575.539 124.222 576.146 124.829 576.939 124.829C577.732 124.829 578.339 124.222 578.339 123.428C578.339 122.681 577.732 122.028 576.939 122.028Z" fill="#4A4A4A"/>
<g opacity="0.27">
<path opacity="0.27" d="M148.728 94.3917H143.268V163.108H148.728V94.3917Z" fill="#4A4A4A"/>
</g>
</svg>
