<svg width="12" height="16" viewBox="0 0 12 16" fill="none" xmlns="http://www.w3.org/2000/svg">
<path d="M12 8.57143V13.7143C12 14.6611 11.2325 15.4286 10.2857 15.4286H1.71429C0.767512 15.4286 0 14.6611 0 13.7143V8.57143C0 7.62465 0.767512 6.85714 1.71429 6.85714V4.28571C1.71429 1.91878 3.63307 0 6 0C8.36693 0 10.2857 1.91878 10.2857 4.28571V6.85714C11.2325 6.85714 12 7.62465 12 8.57143ZM6 12.8571C6.94677 12.8571 7.71429 12.0896 7.71429 11.1429C7.71429 10.1961 6.94677 9.42857 6 9.42857C5.05323 9.42857 4.28571 10.1961 4.28571 11.1429C4.28571 12.0896 5.05323 12.8571 6 12.8571ZM8.57143 6V3.64286C8.57143 2.95384 8.08132 2.31717 7.28571 1.97267C6.49011 1.62816 5.50989 1.62816 4.71429 1.97267C3.91868 2.31717 3.42857 2.95384 3.42857 3.64286V6H8.57143Z" fill="#00c851"/>
</svg>
