<svg xmlns="http://www.w3.org/2000/svg" xmlns:xlink="http://www.w3.org/1999/xlink" width="127" height="30" viewBox="0 0 127 30">
  <defs>
    <clipPath id="clip-path">
      <rect id="Rectangle_87" data-name="Rectangle 87" width="121.476" height="20.612" transform="translate(0 0)" fill="#393939"/>
    </clipPath>
  </defs>
  <g id="Group_110" data-name="Group 110" transform="translate(-155 -365)">
    <rect id="Rectangle_85" data-name="Rectangle 85" width="127" height="30" transform="translate(155 365)" fill="#fff"/>
    <g id="Group_109" data-name="Group 109" transform="translate(158 370)">
      <g id="Group_108" data-name="Group 108" transform="translate(0 0)" clip-path="url(#clip-path)">
        <path id="Path_1889" data-name="Path 1889" d="M6.495,22.253c-3.853,0-6.384-2.2-6.495-5.146H2.037C2.2,18.7,3.385,20.63,6.495,20.63c2.669,0,4.238-1.569,4.238-3.55,0-5.669-10.567-2.091-10.567-9.328,0-2.972,2.449-5.146,6.164-5.146,3.66,0,5.862,2.037,6.192,4.679H10.43c-.22-1.349-1.514-3-4.183-3.027C3.99,4.229,2.119,5.467,2.119,7.7c0,5.559,10.567,2.146,10.567,9.3,0,2.614-2.119,5.256-6.192,5.256" transform="translate(0 -1.697)" fill="#393939"/>
        <path id="Path_1890" data-name="Path 1890" d="M56.666,30.345H54.74V27.7a5.43,5.43,0,0,1-5.119,2.889c-3.412,0-6.109-2.092-6.109-6.495V15.32h1.9v8.558c0,3.33,1.816,5.036,4.568,5.036,2.807,0,4.761-1.761,4.761-5.421V15.32h1.926Z" transform="translate(-28.348 -9.981)" fill="#393939"/>
        <path id="Path_1891" data-name="Path 1891" d="M101.992,21.244c0-3.33-1.816-5.036-4.568-5.036-2.807,0-4.761,1.761-4.761,5.421v8.2H90.737V14.8h1.926v2.559a5.49,5.49,0,0,1,5.119-2.835c3.412,0,6.109,2.092,6.109,6.495V29.83h-1.9Z" transform="translate(-59.116 -9.466)" fill="#393939"/>
        <path id="Path_1892" data-name="Path 1892" d="M147.023,3.316h4.1l-7.045,19.208H139.4L132.355,3.316h4.128l5.284,15.273Z" transform="translate(-86.23 -2.16)" fill="#393939"/>
        <path id="Path_1893" data-name="Path 1893" d="M193.808,13.976a6.029,6.029,0,0,1,5.036,2.422V14.224h3.88V29.469h-3.88V27.24a6.012,6.012,0,0,1-5.063,2.477c-3.853,0-6.935-3.165-6.935-7.925s3.082-7.815,6.962-7.815m.99,3.385c-2.064,0-4.017,1.541-4.017,4.43s1.954,4.541,4.017,4.541c2.119,0,4.045-1.6,4.045-4.485s-1.926-4.485-4.045-4.485" transform="translate(-121.731 -9.105)" fill="#393939"/>
        <rect id="Rectangle_86" data-name="Rectangle 86" width="3.853" height="20.364" transform="translate(83.664 0)" fill="#393939"/>
        <path id="Path_1894" data-name="Path 1894" d="M273,29.933h-3.88V28.007a5.622,5.622,0,0,1-4.541,2.119c-3.55,0-6.109-2.312-6.109-6.495V14.688h3.853v8.393c0,2.449,1.348,3.77,3.385,3.77,2.091,0,3.412-1.321,3.412-3.77V14.688H273Z" transform="translate(-168.396 -9.569)" fill="#393939"/>
        <path id="Path_1895" data-name="Path 1895" d="M312.714,29.717c-4.43,0-7.65-3.082-7.65-7.87,0-4.815,3.137-7.87,7.65-7.87a7.157,7.157,0,0,1,7.513,7.54,8.963,8.963,0,0,1-.11,1.486H308.972a3.567,3.567,0,0,0,3.66,3.522,3.141,3.141,0,0,0,3.054-1.844h4.155a7.085,7.085,0,0,1-7.127,5.036M309,20.415h7.238a3.387,3.387,0,0,0-3.632-3.274A3.54,3.54,0,0,0,309,20.415" transform="translate(-198.751 -9.105)" fill="#393939"/>
      </g>
    </g>
  </g>
</svg>
