<svg xmlns="http://www.w3.org/2000/svg" width="53" height="48" fill="none" stroke="#91b5ca" stroke-width="1.5" stroke-linejoin="round" xmlns:v="https://vecta.io/nano"><path d="M3.096 37.224c0 4.56 3.24 6.432 7.176 4.176l5.64-3.216c1.224-.696 3.264-.768 4.536-.12l12.6 6.312c1.272.624 3.312.576 4.536-.12l10.392-5.952c1.32-.768 2.424-2.64 2.424-4.176V10.776c0-4.56-3.24-6.432-7.176-4.176l-5.64 3.216c-1.224.696-3.264.768-4.536.12l-12.6-6.288c-1.272-.624-3.312-.576-4.536.12L5.52 9.72c-1.344.768-2.424 2.64-2.424 4.152v23.352z"/><path d="M18.144 4.8V36m17.208-24.912V43.2" stroke-linecap="round"/></svg>