<svg xmlns="http://www.w3.org/2000/svg" width="490" height="94.718" viewBox="0 0 490 94.718">
  <g id="Group_1" data-name="Group 1" transform="translate(-319 -683.282)">
    <g id="Group_4" data-name="Group 4" transform="translate(319 689.877)">
      <path id="Path_13" data-name="Path 13" d="M103.079,335.653s-9.691,5.349-12.4,9.818-7.11,13.278-3.964,22.088S96.786,379.768,99.743,380.4a29.365,29.365,0,0,0,24.732-4.656c11.139-7.992,9.88-15.293,9.818-16.866s-.252-21.962-21.082-16.677c-20.641,8.5-9.944,24.606-8.622,25.486s4.154,2.266,8.811,1.512,10.887-7.93,7.992-12.9-7.112-3.649-8.119-2.957-3.65,2.14-1.2,7.048c0,0-4.531-.377-3.839-4.657s6.8-7.678,8.433-7.678,8.055-1.322,10.257,4.342-3.335,15.04-6.1,16.11-9.942,7.866-17.305,4.657-9.062-8.747-8.5-12.837,2.517-10.51,6.545-13.027,5.853-5.979,5.916-7.489S108.365,335.591,103.079,335.653Z" transform="translate(-65.482 -315.965)" fill="#fc0"/>
      <path id="Path_14" data-name="Path 14" d="M108.547,322.656a26.333,26.333,0,0,0-2.2,9.188c0,4.341-.63,7.866,2.2,7.425s4.846-7.615,5.16-13.215S110.435,319.132,108.547,322.656Z" transform="translate(-59.268 -320.705)" fill="#fc0"/>
      <path id="Path_15" data-name="Path 15" d="M87.184,322.294s-1.51,5.475,0,8.5,4.593,8.117,6.545,8.558,2.329-.567,2.517-2.894S90.267,320.407,87.184,322.294Z" transform="translate(-65.216 -320.281)" fill="#fc0"/>
      <path id="Path_16" data-name="Path 16" d="M73.629,335.113a5.677,5.677,0,0,0,2.391,3.8c2.329,1.888,7.363,6.671,11.013,6.671s3.692-1.51,3.356-2.77S77.593,332.507,73.629,335.113Z" transform="translate(-69.092 -316.388)" fill="#fc0"/>
      <path id="Path_17" data-name="Path 17" d="M70.21,352.995s-.756,1.763,2.768,2.581,12.272,3.021,15.985-1.637S69.329,348.4,70.21,352.995Z" transform="translate(-70.142 -311.655)" fill="#fc0"/>
      <path id="Path_18" data-name="Path 18" d="M76.171,372.945a3.994,3.994,0,0,0,4.279.252c2.643-1.2,8.748-4.72,8.56-7.678s-5.763-.252-7.6,1.007S74.534,371.246,76.171,372.945Z" transform="translate(-68.425 -307.244)" fill="#fc0"/>
      <path id="Path_19" data-name="Path 19" d="M97.479,371.767a10.746,10.746,0,0,0-5.916,6.2c-2.076,4.972-4.279,9.124-2.327,10.572s6.1-2.958,7.614-6.418S101.443,373.625,97.479,371.767Z" transform="translate(-64.625 -304.819)" fill="#fc0"/>
      <path id="Path_20" data-name="Path 20" d="M106.945,373.592s-2.395.441-2.772,6.986.63,11.768,2.076,11.83,3.588-2.957,3.9-6.922S109.59,372.774,106.945,373.592Z" transform="translate(-59.927 -304.286)" fill="#fc0"/>
      <path id="Path_21" data-name="Path 21" d="M115.329,370.255s-1.888,1.637,0,5.853,6.859,11.768,9,11.7,4.09-2.2,1.951-6.1S119.986,366.731,115.329,370.255Z" transform="translate(-56.799 -305.479)" fill="#fc0"/>
      <path id="Path_22" data-name="Path 22" d="M123.376,362.185s-1.167,1.825,1.241,3.713a84.621,84.621,0,0,0,12.6,6.923c1.574.5,3.965.189,3.4-2.643s-12.4-9-14.16-9.124a4.463,4.463,0,0,0-3.081,1.131Z" transform="translate(-54.211 -308.205)" fill="#fc0"/>
      <path id="Path_23" data-name="Path 23" d="M125.638,353.737s1.133,2.5,3.46,2.689,12.9-1.35,14.852-2.689,2.455-4.989,0-4.926S124.946,350.168,125.638,353.737Z" transform="translate(-53.452 -312.01)" fill="#fc0"/>
      <path id="Path_24" data-name="Path 24" d="M130.262,333.247a30.22,30.22,0,0,0-7.363,5.159c-2.832,2.958-2.455,4.468,0,5.349s10.824-5.726,11.328-6.607S136.114,331.233,130.262,333.247Z" transform="translate(-54.867 -316.966)" fill="#fc0"/>
    </g>
    <text id="Strategic_Solar" data-name="Strategic Solar" transform="translate(427 737.282)" fill="#fff" font-size="51" font-family="Poppins-SemiBold, Poppins" font-weight="600"><tspan x="0" y="0">Strategic Solar</tspan></text>
    <text id="_SOLUTIONS" data-name=" SOLUTIONS" transform="translate(386.449 766.778)" fill="#fff" font-size="13" font-family="Poppins-SemiBold, Poppins" font-weight="600" letter-spacing="2.92em"><tspan x="0" y="0" xml:space="preserve"> SOLUTIONS</tspan></text>
  </g>
</svg>
