<svg xmlns="http://www.w3.org/2000/svg" width="51" height="48" fill="none" stroke="#91b5ca" stroke-width="1.5" stroke-linejoin="round" xmlns:v="https://vecta.io/nano"><path d="M36.396 29.593c.188 2.254 2.254 3.903 4.508 3.903h3.965v2.483c0 4.32-3.527 7.847-7.847 7.847H15.923a7.5 7.5 0 0 0 1.649-1.962c.772-1.252 1.21-2.734 1.21-4.299 0-4.612-3.736-8.348-8.348-8.348-1.962 0-3.777.689-5.217 1.836v-9.12c0-4.32 3.527-7.847 7.847-7.847h23.958c4.32 0 7.847 3.527 7.847 7.847v3.005h-4.216c-1.169 0-2.233.459-3.005 1.252-.876.856-1.377 2.087-1.252 3.402z"/><path d="M5.217 23.812v-9.537c0-2.484 1.523-4.696 3.84-5.572l16.57-6.261a3.97 3.97 0 0 1 5.363 3.715v7.93" stroke-linecap="round"/><path d="M47.079 31.367c0 1.148-.918 2.087-2.087 2.129h-4.09c-2.254 0-4.32-1.649-4.508-3.903a4.19 4.19 0 0 1 1.252-3.402 4.16 4.16 0 0 1 3.005-1.252h4.341c1.169.042 2.087.981 2.087 2.129v4.299z"/><path d="M14.609 22.957h14.609" stroke-linecap="round"/><path d="M17.572 41.864c-.438.751-1.002 1.419-1.649 1.962-1.461 1.315-3.381 2.087-5.489 2.087-3.047 0-5.697-1.628-7.137-4.049-.772-1.252-1.21-2.734-1.21-4.299 0-2.629 1.21-4.988 3.13-6.511 1.44-1.148 3.256-1.836 5.217-1.836a8.35 8.35 0 0 1 8.348 8.348c0 1.565-.438 3.047-1.21 4.299z"/><path d="M7.182 37.564l2.066 2.066 4.445-4.111" stroke-linecap="round"/></svg>